<?xml version="1.0" encoding="UTF-8" standalone="no"?><svg xmlns="http://www.w3.org/2000/svg" xmlns:xlink="http://www.w3.org/1999/xlink" clip-rule="evenodd" stroke-miterlimit="10" viewBox="0 0 1024 768"><desc>SVG generated by Keynote</desc><defs><pattern id="D996DD78-3F59-4415-92FB-4661CF4B8346" patternUnits="userSpaceOnUse" width="500" height="500" viewBox="0 0 500 500"><image xlink:href="../../05127A97-0DCB-4834-96B2-EAE1F9F8243D/assets/B1BB401D260220CE6C27ED8098254CF4.png" width="500.00" height="500.00"></image></pattern></defs><g transform="matrix(1.00, 0.00, -0.00, -1.00, 0.0, 768.0)"><g><clipPath id="clip0x6080006bdb80"><path d="M 0.0 768.0 L 1024.0 768.0 L 1024.0 0.0 L 0.0 0.0 Z M 0.0 768.0 "></path></clipPath><g clip-path="url(#clip0x6080006bdb80)"><image xlink:href="../../7FC18F8E-5479-4DEA-8BBD-22B2C86A0A56/assets/B5EE15FD4291743AF7496326DC17A466.jpeg" width="2048.00" height="1536.00" transform="matrix(0.50, 0.00, -0.00, -0.50, 0.0, 768.0)"></image></g></g><g opacity="0.45"><g><clipPath id="clip0x6100006b5840"><path d="M 30.0 48.0 L 994.0 48.0 L 994.0 741.0 L 30.0 741.0 Z M 30.0 48.0 "></path></clipPath><g clip-path="url(#clip0x6100006b5840)"><image xlink:href="../../7FC18F8E-5479-4DEA-8BBD-22B2C86A0A56/assets/1E0376F862DA30D710D4F1E0694CAC10.png" width="1374.00" height="986.00" transform="matrix(0.70, 0.00, -0.00, -0.70, 31.0, 740.0)"></image></g></g></g><image xlink:href="../../05127A97-0DCB-4834-96B2-EAE1F9F8243D/assets/98932D4DE77CE8B07FC9818B357166FF.png" width="202.00" height="51.00" transform="matrix(1.00, 0.00, -0.00, -1.00, 190.4, 572.2)" opacity="0.30"></image><g><clipPath id="clip0x6080006bde20"><path d="M 193.6 541.0 L 194.0 556.2 C 194.0 564.5 200.3 571.0 208.6 571.0 L 374.7 571.0 C 383.0 571.0 390.0 564.5 390.0 556.2 L 390.0 541.0 C 390.0 532.7 383.0 526.0 374.7 526.0 L 208.6 526.0 C 200.3 526.0 193.6 532.7 193.6 541.0 Z M 193.6 541.0 "></path></clipPath><g clip-path="url(#clip0x6080006bde20)"><image xlink:href="../../05127A97-0DCB-4834-96B2-EAE1F9F8243D/assets/B1BB401D260220CE6C27ED8098254CF4.png" width="500.00" height="500.00" transform="matrix(0.50, 0.00, -0.00, -0.50, 193.6, 571.0)"></image></g></g><image xlink:href="../../76836967-24C5-454E-8342-6ECC8126BFA7/assets/DC31DB935083B85B0F2B91B25A920C2D.png" width="202.00" height="72.00" transform="matrix(1.00, 0.00, -0.00, -1.00, 663.9, 213.8)" opacity="0.30"></image><g><clipPath id="clip0x6180008a8640"><path d="M 667.1 162.2 L 667.0 197.8 C 667.0 206.1 673.9 213.0 682.1 213.0 L 848.2 213.0 C 856.5 213.0 863.0 206.1 863.0 197.8 L 863.0 162.2 C 863.0 153.9 856.5 147.0 848.2 147.0 L 682.1 147.0 C 673.9 147.0 667.1 153.9 667.1 162.2 Z M 667.1 162.2 "></path></clipPath><g clip-path="url(#clip0x6180008a8640)"><image xlink:href="../../05127A97-0DCB-4834-96B2-EAE1F9F8243D/assets/B1BB401D260220CE6C27ED8098254CF4.png" width="500.00" height="500.00" transform="matrix(0.50, 0.00, -0.00, -0.50, 667.0, 213.0)"></image></g></g><image xlink:href="../../05127A97-0DCB-4834-96B2-EAE1F9F8243D/assets/EAA4149B229EFD168AECBDE247C14567.png" width="307.00" height="58.00" transform="matrix(1.00, 0.00, -0.00, -1.00, 367.0, 393.0)" opacity="0.30"></image><g><clipPath id="clip0x6100006b5a20"><path d="M 370.2 355.0 L 370.0 377.0 C 370.0 385.3 376.9 392.0 385.2 392.0 L 656.0 392.0 C 664.3 392.0 671.0 385.3 671.0 377.0 L 671.0 355.0 C 671.0 346.7 664.3 340.0 656.0 340.0 L 385.2 340.0 C 376.9 340.0 370.2 346.7 370.2 355.0 Z M 370.2 355.0 "></path></clipPath><g clip-path="url(#clip0x6100006b5a20)"><path d="M 370.0 340.0 L 671.0 340.0 L 671.0 392.0 L 370.0 392.0 Z M 370.0 340.0 " fill="url(#D996DD78-3F59-4415-92FB-4661CF4B8346)"></path></g></g><image xlink:href="../../DF5E5B08-6C0A-4543-8564-07EA01AC96AE/assets/D4338225D15FBCF2D7EBD4B47790621D.png" width="307.00" height="41.00" transform="matrix(1.00, 0.00, -0.00, -1.00, 75.0, 701.0)"></image><text xml:space="preserve" font-family="AvenirNext-DemiBold,Avenir Next" font-weight="bold" font-size="48.0" fill="#3D3B38" transform="matrix(1.00, 0.00, -0.00, -1.00, 75.0, 665.6)">O</text><text xml:space="preserve" font-family="AvenirNext-DemiBold,Avenir Next" font-weight="bold" font-size="48.0" fill="#3D3B38" transform="matrix(1.00, 0.00, -0.00, -1.00, 119.6, 665.6)">P</text><text xml:space="preserve" font-family="AvenirNext-DemiBold,Avenir Next" font-weight="bold" font-size="48.0" fill="#3D3B38" transform="matrix(1.00, 0.00, -0.00, -1.00, 152.7, 665.6)">E</text><text xml:space="preserve" font-family="AvenirNext-DemiBold,Avenir Next" font-weight="bold" font-size="48.0" fill="#3D3B38" transform="matrix(1.00, 0.00, -0.00, -1.00, 185.8, 665.6)">N</text><text xml:space="preserve" font-family="AvenirNext-DemiBold,Avenir Next" font-weight="bold" font-size="48.0" fill="#3D3B38" transform="matrix(1.00, 0.00, -0.00, -1.00, 227.1, 665.6)"> </text><text xml:space="preserve" font-family="AvenirNext-DemiBold,Avenir Next" font-weight="bold" font-size="48.0" fill="#3D3B38" transform="matrix(1.00, 0.00, -0.00, -1.00, 243.0, 665.6)">D</text><text xml:space="preserve" font-family="AvenirNext-DemiBold,Avenir Next" font-weight="bold" font-size="48.0" fill="#3D3B38" transform="matrix(1.00, 0.00, -0.00, -1.00, 282.3, 665.6)">A</text><text xml:space="preserve" font-family="AvenirNext-DemiBold,Avenir Next" font-weight="bold" font-size="48.0" fill="#3D3B38" transform="matrix(1.00, 0.00, -0.00, -1.00, 317.2, 665.6)">T</text><text xml:space="preserve" font-family="AvenirNext-DemiBold,Avenir Next" font-weight="bold" font-size="48.0" fill="#3D3B38" transform="matrix(1.00, 0.00, -0.00, -1.00, 345.4, 665.6)">A</text><text xml:space="preserve" font-family="AvenirNext-Bold,Avenir Next" font-weight="bold" font-size="48.0" fill="#3D3B38" transform="matrix(1.00, 0.00, -0.00, -1.00, 383.1, 665.6)"> </text><image xlink:href="../../DF5E5B08-6C0A-4543-8564-07EA01AC96AE/assets/F2A0A168162071F8B6EBAF6474A0B761.png" width="313.00" height="41.00" transform="matrix(1.00, 0.00, -0.00, -1.00, 397.0, 701.0)"></image><text xml:space="preserve" font-family="AvenirNext-BoldItalic,Avenir Next" font-style="italic" font-weight="bold" font-size="48.0" fill="#3D3B38" transform="matrix(1.00, 0.00, -0.00, -1.00, 399.0, 665.6)">B</text><text xml:space="preserve" font-family="AvenirNext-BoldItalic,Avenir Next" font-style="italic" font-weight="bold" font-size="48.0" fill="#3D3B38" transform="matrix(1.00, 0.00, -0.00, -1.00, 434.7, 665.6)">O</text><text xml:space="preserve" font-family="AvenirNext-BoldItalic,Avenir Next" font-style="italic" font-weight="bold" font-size="48.0" fill="#3D3B38" transform="matrix(1.00, 0.00, -0.00, -1.00, 478.4, 665.6)">O</text><text xml:space="preserve" font-family="AvenirNext-BoldItalic,Avenir Next" font-style="italic" font-weight="bold" font-size="48.0" fill="#3D3B38" transform="matrix(1.00, 0.00, -0.00, -1.00, 522.1, 665.6)">K</text><text xml:space="preserve" font-family="AvenirNext-BoldItalic,Avenir Next" font-style="italic" font-weight="bold" font-size="48.0" fill="#3D3B38" transform="matrix(1.00, 0.00, -0.00, -1.00, 558.0, 665.6)"> </text><text xml:space="preserve" font-family="AvenirNext-BoldItalic,Avenir Next" font-style="italic" font-weight="bold" font-size="48.0" fill="#3D3B38" transform="matrix(1.00, 0.00, -0.00, -1.00, 573.8, 665.6)">C</text><text xml:space="preserve" font-family="AvenirNext-BoldItalic,Avenir Next" font-style="italic" font-weight="bold" font-size="48.0" fill="#3D3B38" transform="matrix(1.00, 0.00, -0.00, -1.00, 610.5, 665.6)">L</text><text xml:space="preserve" font-family="AvenirNext-BoldItalic,Avenir Next" font-style="italic" font-weight="bold" font-size="48.0" fill="#3D3B38" transform="matrix(1.00, 0.00, -0.00, -1.00, 638.1, 665.6)">U</text><text xml:space="preserve" font-family="AvenirNext-BoldItalic,Avenir Next" font-style="italic" font-weight="bold" font-size="48.0" fill="#3D3B38" transform="matrix(1.00, 0.00, -0.00, -1.00, 677.3, 665.6)">B</text><image xlink:href="../../9673E26D-CF55-40DF-AF69-F3E58CF10DE0/assets/749EA314E814C10C33D42BAA2F30A585.png" width="158.00" height="21.00" transform="matrix(1.00, 0.00, -0.00, -1.00, 206.0, 558.0)"></image><text xml:space="preserve" font-family="AvenirNext-DemiBoldItalic,Avenir Next" font-style="italic" font-weight="bold" font-size="32.0" fill="#5D514B" transform="matrix(1.00, 0.00, -0.00, -1.00, 208.4, 541.7)">a</text><text xml:space="preserve" font-family="AvenirNext-DemiBoldItalic,Avenir Next" font-style="italic" font-weight="bold" font-size="32.0" fill="#5D514B" transform="matrix(1.00, 0.00, -0.00, -1.00, 225.6, 541.7)">w</text><text xml:space="preserve" font-family="AvenirNext-DemiBoldItalic,Avenir Next" font-style="italic" font-weight="bold" font-size="32.0" fill="#5D514B" transform="matrix(1.00, 0.00, -0.00, -1.00, 250.7, 541.7)">a</text><text xml:space="preserve" font-family="AvenirNext-DemiBoldItalic,Avenir Next" font-style="italic" font-weight="bold" font-size="32.0" fill="#5D514B" transform="matrix(1.00, 0.00, -0.00, -1.00, 268.0, 541.7)">r</text><text xml:space="preserve" font-family="AvenirNext-DemiBoldItalic,Avenir Next" font-style="italic" font-weight="bold" font-size="32.0" fill="#5D514B" transform="matrix(1.00, 0.00, -0.00, -1.00, 278.4, 541.7)">e</text><text xml:space="preserve" font-family="AvenirNext-DemiBoldItalic,Avenir Next" font-style="italic" font-weight="bold" font-size="32.0" fill="#5D514B" transform="matrix(1.00, 0.00, -0.00, -1.00, 296.5, 541.7)">n</text><text xml:space="preserve" font-family="AvenirNext-DemiBoldItalic,Avenir Next" font-style="italic" font-weight="bold" font-size="32.0" fill="#5D514B" transform="matrix(1.00, 0.00, -0.00, -1.00, 315.2, 541.7)">e</text><text xml:space="preserve" font-family="AvenirNext-DemiBoldItalic,Avenir Next" font-style="italic" font-weight="bold" font-size="32.0" fill="#5D514B" transform="matrix(1.00, 0.00, -0.00, -1.00, 333.2, 541.7)">s</text><text xml:space="preserve" font-family="AvenirNext-DemiBoldItalic,Avenir Next" font-style="italic" font-weight="bold" font-size="32.0" fill="#5D514B" transform="matrix(1.00, 0.00, -0.00, -1.00, 347.4, 541.7)">s</text><image xlink:href="../../D60AB7CF-EA31-4839-9B66-459E0E8FF69E/assets/075417A5227B39370081A8E82ED2249A.png" width="193.00" height="32.00" transform="matrix(1.00, 0.00, -0.00, -1.00, 425.0, 376.0)"></image><text xml:space="preserve" font-family="AvenirNext-DemiBoldItalic,Avenir Next" font-style="italic" font-weight="bold" font-size="32.0" fill="#5D514B" transform="matrix(1.00, 0.00, -0.00, -1.00, 426.6, 355.7)">e</text><text xml:space="preserve" font-family="AvenirNext-DemiBoldItalic,Avenir Next" font-style="italic" font-weight="bold" font-size="32.0" fill="#5D514B" transform="matrix(1.00, 0.00, -0.00, -1.00, 444.7, 355.7)">n</text><text xml:space="preserve" font-family="AvenirNext-DemiBoldItalic,Avenir Next" font-style="italic" font-weight="bold" font-size="32.0" fill="#5D514B" transform="matrix(1.00, 0.00, -0.00, -1.00, 463.4, 355.7)">g</text><text xml:space="preserve" font-family="AvenirNext-DemiBoldItalic,Avenir Next" font-style="italic" font-weight="bold" font-size="32.0" fill="#5D514B" transform="matrix(1.00, 0.00, -0.00, -1.00, 483.6, 355.7)">a</text><text xml:space="preserve" font-family="AvenirNext-DemiBoldItalic,Avenir Next" font-style="italic" font-weight="bold" font-size="32.0" fill="#5D514B" transform="matrix(1.00, 0.00, -0.00, -1.00, 500.9, 355.7)">g</text><text xml:space="preserve" font-family="AvenirNext-DemiBoldItalic,Avenir Next" font-style="italic" font-weight="bold" font-size="32.0" fill="#5D514B" transform="matrix(1.00, 0.00, -0.00, -1.00, 521.1, 355.7)">e</text><text xml:space="preserve" font-family="AvenirNext-DemiBoldItalic,Avenir Next" font-style="italic" font-weight="bold" font-size="32.0" fill="#5D514B" transform="matrix(1.00, 0.00, -0.00, -1.00, 539.1, 355.7)">m</text><text xml:space="preserve" font-family="AvenirNext-DemiBoldItalic,Avenir Next" font-style="italic" font-weight="bold" font-size="32.0" fill="#5D514B" transform="matrix(1.00, 0.00, -0.00, -1.00, 567.7, 355.7)">e</text><text xml:space="preserve" font-family="AvenirNext-DemiBoldItalic,Avenir Next" font-style="italic" font-weight="bold" font-size="32.0" fill="#5D514B" transform="matrix(1.00, 0.00, -0.00, -1.00, 585.8, 355.7)">n</text><text xml:space="preserve" font-family="AvenirNext-DemiBoldItalic,Avenir Next" font-style="italic" font-weight="bold" font-size="32.0" fill="#5D514B" transform="matrix(1.00, 0.00, -0.00, -1.00, 604.5, 355.7)">t</text><image xlink:href="../../9673E26D-CF55-40DF-AF69-F3E58CF10DE0/assets/0002559B2CE6AA8DB9546385ABFEC452.png" width="105.00" height="35.00" transform="matrix(1.00, 0.00, -0.00, -1.00, 713.0, 193.0)"></image><text xml:space="preserve" font-family="AvenirNext-DemiBoldItalic,Avenir Next" font-style="italic" font-weight="bold" font-size="32.0" fill="#5D514B" transform="matrix(1.00, 0.00, -0.00, -1.00, 714.3, 169.7)">i</text><text xml:space="preserve" font-family="AvenirNext-DemiBoldItalic,Avenir Next" font-style="italic" font-weight="bold" font-size="32.0" fill="#5D514B" transform="matrix(1.00, 0.00, -0.00, -1.00, 722.9, 169.7)">m</text><text xml:space="preserve" font-family="AvenirNext-DemiBoldItalic,Avenir Next" font-style="italic" font-weight="bold" font-size="32.0" fill="#5D514B" transform="matrix(1.00, 0.00, -0.00, -1.00, 751.5, 169.7)">p</text><text xml:space="preserve" font-family="AvenirNext-DemiBoldItalic,Avenir Next" font-style="italic" font-weight="bold" font-size="32.0" fill="#5D514B" transform="matrix(1.00, 0.00, -0.00, -1.00, 771.8, 169.7)">a</text><text xml:space="preserve" font-family="AvenirNext-DemiBoldItalic,Avenir Next" font-style="italic" font-weight="bold" font-size="32.0" fill="#5D514B" transform="matrix(1.00, 0.00, -0.00, -1.00, 789.0, 169.7)">c</text><text xml:space="preserve" font-family="AvenirNext-DemiBoldItalic,Avenir Next" font-style="italic" font-weight="bold" font-size="32.0" fill="#5D514B" transform="matrix(1.00, 0.00, -0.00, -1.00, 804.8, 169.7)">t</text></g></svg>