<?xml version="1.0" encoding="UTF-8" standalone="no"?><svg xmlns="http://www.w3.org/2000/svg" xmlns:xlink="http://www.w3.org/1999/xlink" clip-rule="evenodd" stroke-miterlimit="10" viewBox="0 0 1024 768"><desc>SVG generated by Keynote</desc><defs></defs><g transform="matrix(1.00, 0.00, -0.00, -1.00, 0.0, 768.0)"><g><clipPath id="clip0x6100008a5040"><path d="M 0.0 768.0 L 1024.0 768.0 L 1024.0 0.0 L 0.0 0.0 Z M 0.0 768.0 "></path></clipPath><g clip-path="url(#clip0x6100008a5040)"><image xlink:href="../../7FC18F8E-5479-4DEA-8BBD-22B2C86A0A56/assets/B5EE15FD4291743AF7496326DC17A466.jpeg" width="2048.00" height="1536.00" transform="matrix(0.50, 0.00, -0.00, -0.50, 0.0, 768.0)"></image></g></g><g opacity="0.45"><g><clipPath id="clip0x6080008aaf80"><path d="M 30.0 48.0 L 994.0 48.0 L 994.0 741.0 L 30.0 741.0 Z M 30.0 48.0 "></path></clipPath><g clip-path="url(#clip0x6080008aaf80)"><image xlink:href="../../7FC18F8E-5479-4DEA-8BBD-22B2C86A0A56/assets/1E0376F862DA30D710D4F1E0694CAC10.png" width="1374.00" height="986.00" transform="matrix(0.70, 0.00, -0.00, -0.70, 31.0, 740.0)"></image></g></g></g><image xlink:href="../../1D16E307-9121-43E6-AD11-1D8F47265D45/assets/EF54D15353955CDE9BDC955D1F16F31E.png" width="342.00" height="41.00" transform="matrix(1.00, 0.00, -0.00, -1.00, 76.0, 701.0)"></image><text xml:space="preserve" font-family="AvenirNext-Bold,Avenir Next" font-weight="bold" font-size="48.0" fill="#3D3B38" transform="matrix(1.00, 0.00, -0.00, -1.00, 75.0, 665.6)">R</text><text xml:space="preserve" font-family="AvenirNext-Bold,Avenir Next" font-weight="bold" font-size="48.0" fill="#3D3B38" transform="matrix(1.00, 0.00, -0.00, -1.00, 110.7, 665.6)">E</text><text xml:space="preserve" font-family="AvenirNext-Bold,Avenir Next" font-weight="bold" font-size="48.0" fill="#3D3B38" transform="matrix(1.00, 0.00, -0.00, -1.00, 143.6, 665.6)">F</text><text xml:space="preserve" font-family="AvenirNext-Bold,Avenir Next" font-weight="bold" font-size="48.0" fill="#3D3B38" transform="matrix(1.00, 0.00, -0.00, -1.00, 175.1, 665.6)">E</text><text xml:space="preserve" font-family="AvenirNext-Bold,Avenir Next" font-weight="bold" font-size="48.0" fill="#3D3B38" transform="matrix(1.00, 0.00, -0.00, -1.00, 208.1, 665.6)">R</text><text xml:space="preserve" font-family="AvenirNext-Bold,Avenir Next" font-weight="bold" font-size="48.0" fill="#3D3B38" transform="matrix(1.00, 0.00, -0.00, -1.00, 243.8, 665.6)">E</text><text xml:space="preserve" font-family="AvenirNext-Bold,Avenir Next" font-weight="bold" font-size="48.0" fill="#3D3B38" transform="matrix(1.00, 0.00, -0.00, -1.00, 276.7, 665.6)">N</text><text xml:space="preserve" font-family="AvenirNext-Bold,Avenir Next" font-weight="bold" font-size="48.0" fill="#3D3B38" transform="matrix(1.00, 0.00, -0.00, -1.00, 318.5, 665.6)">C</text><text xml:space="preserve" font-family="AvenirNext-Bold,Avenir Next" font-weight="bold" font-size="48.0" fill="#3D3B38" transform="matrix(1.00, 0.00, -0.00, -1.00, 355.8, 665.6)">E</text><text xml:space="preserve" font-family="AvenirNext-Bold,Avenir Next" font-weight="bold" font-size="48.0" fill="#3D3B38" transform="matrix(1.00, 0.00, -0.00, -1.00, 388.7, 665.6)">S</text><image xlink:href="../../1D16E307-9121-43E6-AD11-1D8F47265D45/assets/29295A7CB321640EF3A58E87DB53593E.png" width="10.00" height="10.00" transform="matrix(1.00, 0.00, -0.00, -1.00, 74.0, 359.0)"></image><text xml:space="preserve" font-family="AvenirNext-Medium,Avenir Next" font-size="15.0" fill="#5D514B" transform="matrix(1.00, 0.00, -0.00, -1.00, 75.0, 351.0)">•</text><image xlink:href="CA72D82BB35B8C5239B223544D06AA16.png" width="219.00" height="20.00" transform="matrix(1.00, 0.00, -0.00, -1.00, 108.0, 366.0)"></image><text xml:space="preserve" font-family="AvenirNext-Medium,Avenir Next" font-size="20.0" fill="#5D514B" transform="matrix(1.00, 0.00, -0.00, -1.00, 110.0, 351.3)">T</text><text xml:space="preserve" font-family="AvenirNext-Medium,Avenir Next" font-size="20.0" fill="#5D514B" transform="matrix(1.00, 0.00, -0.00, -1.00, 121.1, 351.3)">i</text><text xml:space="preserve" font-family="AvenirNext-Medium,Avenir Next" font-size="20.0" fill="#5D514B" transform="matrix(1.00, 0.00, -0.00, -1.00, 126.3, 351.3)">m</text><text xml:space="preserve" font-family="AvenirNext-Medium,Avenir Next" font-size="20.0" fill="#5D514B" transform="matrix(1.00, 0.00, -0.00, -1.00, 144.1, 351.3)"> </text><text xml:space="preserve" font-family="AvenirNext-Medium,Avenir Next" font-size="20.0" fill="#5D514B" transform="matrix(1.00, 0.00, -0.00, -1.00, 149.1, 351.3)">B</text><text xml:space="preserve" font-family="AvenirNext-Medium,Avenir Next" font-size="20.0" fill="#5D514B" transform="matrix(1.00, 0.00, -0.00, -1.00, 161.9, 351.3)">e</text><text xml:space="preserve" font-family="AvenirNext-Medium,Avenir Next" font-size="20.0" fill="#5D514B" transform="matrix(1.00, 0.00, -0.00, -1.00, 173.4, 351.3)">r</text><text xml:space="preserve" font-family="AvenirNext-Medium,Avenir Next" font-size="20.0" fill="#5D514B" transform="matrix(1.00, 0.00, -0.00, -1.00, 180.6, 351.3)">n</text><text xml:space="preserve" font-family="AvenirNext-Medium,Avenir Next" font-size="20.0" fill="#5D514B" transform="matrix(1.00, 0.00, -0.00, -1.00, 192.2, 351.3)">e</text><text xml:space="preserve" font-family="AvenirNext-Medium,Avenir Next" font-size="20.0" fill="#5D514B" transform="matrix(1.00, 0.00, -0.00, -1.00, 203.7, 351.3)">r</text><text xml:space="preserve" font-family="AvenirNext-Medium,Avenir Next" font-size="20.0" fill="#5D514B" transform="matrix(1.00, 0.00, -0.00, -1.00, 210.9, 351.3)">s</text><text xml:space="preserve" font-family="AvenirNext-Medium,Avenir Next" font-size="20.0" fill="#5D514B" transform="matrix(1.00, 0.00, -0.00, -1.00, 219.8, 351.3)">-</text><text xml:space="preserve" font-family="AvenirNext-Medium,Avenir Next" font-size="20.0" fill="#5D514B" transform="matrix(1.00, 0.00, -0.00, -1.00, 226.2, 351.3)">L</text><text xml:space="preserve" font-family="AvenirNext-Medium,Avenir Next" font-size="20.0" fill="#5D514B" transform="matrix(1.00, 0.00, -0.00, -1.00, 236.1, 351.3)">e</text><text xml:space="preserve" font-family="AvenirNext-Medium,Avenir Next" font-size="20.0" fill="#5D514B" transform="matrix(1.00, 0.00, -0.00, -1.00, 247.5, 351.3)">e</text><text xml:space="preserve" font-family="AvenirNext-Medium,Avenir Next" font-size="20.0" fill="#5D514B" transform="matrix(1.00, 0.00, -0.00, -1.00, 259.0, 351.3)"> </text><text xml:space="preserve" font-family="AvenirNext-Medium,Avenir Next" font-size="20.0" fill="#5D514B" transform="matrix(1.00, 0.00, -0.00, -1.00, 264.0, 351.3)">5</text><text xml:space="preserve" font-family="AvenirNext-Medium,Avenir Next" font-size="20.0" fill="#5D514B" transform="matrix(1.00, 0.00, -0.00, -1.00, 275.9, 351.3)"> </text><text xml:space="preserve" font-family="AvenirNext-Medium,Avenir Next" font-size="20.0" fill="#5D514B" transform="matrix(1.00, 0.00, -0.00, -1.00, 280.9, 351.3)">S</text><text xml:space="preserve" font-family="AvenirNext-Medium,Avenir Next" font-size="20.0" fill="#5D514B" transform="matrix(1.00, 0.00, -0.00, -1.00, 292.2, 351.3)">t</text><text xml:space="preserve" font-family="AvenirNext-Medium,Avenir Next" font-size="20.0" fill="#5D514B" transform="matrix(1.00, 0.00, -0.00, -1.00, 298.7, 351.3)">a</text><text xml:space="preserve" font-family="AvenirNext-Medium,Avenir Next" font-size="20.0" fill="#5D514B" transform="matrix(1.00, 0.00, -0.00, -1.00, 309.6, 351.3)">r</text><text xml:space="preserve" font-family="AvenirNext-Medium,Avenir Next" font-size="20.0" fill="#5D514B" transform="matrix(1.00, 0.00, -0.00, -1.00, 316.8, 351.3)">s</text><text xml:space="preserve" font-family="AvenirNext-Medium,Avenir Next" font-size="20.0" fill="#5D514B" transform="matrix(1.00, 0.00, -0.00, -1.00, 325.7, 351.3)"> </text><image xlink:href="../../1D16E307-9121-43E6-AD11-1D8F47265D45/assets/29295A7CB321640EF3A58E87DB53593E.png" width="10.00" height="10.00" transform="matrix(1.00, 0.00, -0.00, -1.00, 109.0, 300.0)"></image><text xml:space="preserve" font-family="AvenirNext-Medium,Avenir Next" font-size="15.0" fill="#5D514B" transform="matrix(1.00, 0.00, -0.00, -1.00, 110.0, 292.0)">•</text><image xlink:href="74342D58CE4E9EC69FBDB07E8A8694BD.png" width="730.00" height="25.00" transform="matrix(1.00, 0.00, -0.00, -1.00, 144.0, 308.0)"></image><text xml:space="preserve" font-family="AvenirNext-Medium,Avenir Next" font-size="20.0" fill="#5D514B" transform="matrix(1.00, 0.00, -0.00, -1.00, 145.0, 292.3)">h</text><text xml:space="preserve" font-family="AvenirNext-Medium,Avenir Next" font-size="20.0" fill="#5D514B" transform="matrix(1.00, 0.00, -0.00, -1.00, 156.7, 292.3)">t</text><text xml:space="preserve" font-family="AvenirNext-Medium,Avenir Next" font-size="20.0" fill="#5D514B" transform="matrix(1.00, 0.00, -0.00, -1.00, 163.0, 292.3)">t</text><text xml:space="preserve" font-family="AvenirNext-Medium,Avenir Next" font-size="20.0" fill="#5D514B" transform="matrix(1.00, 0.00, -0.00, -1.00, 169.5, 292.3)">p</text><text xml:space="preserve" font-family="AvenirNext-Medium,Avenir Next" font-size="20.0" fill="#5D514B" transform="matrix(1.00, 0.00, -0.00, -1.00, 182.2, 292.3)">:</text><text xml:space="preserve" font-family="AvenirNext-Medium,Avenir Next" font-size="20.0" fill="#5D514B" transform="matrix(1.00, 0.00, -0.00, -1.00, 188.2, 292.3)">/</text><text xml:space="preserve" font-family="AvenirNext-Medium,Avenir Next" font-size="20.0" fill="#5D514B" transform="matrix(1.00, 0.00, -0.00, -1.00, 195.8, 292.3)">/</text><text xml:space="preserve" font-family="AvenirNext-Medium,Avenir Next" font-size="20.0" fill="#5D514B" transform="matrix(1.00, 0.00, -0.00, -1.00, 203.4, 292.3)">w</text><text xml:space="preserve" font-family="AvenirNext-Medium,Avenir Next" font-size="20.0" fill="#5D514B" transform="matrix(1.00, 0.00, -0.00, -1.00, 218.9, 292.3)">w</text><text xml:space="preserve" font-family="AvenirNext-Medium,Avenir Next" font-size="20.0" fill="#5D514B" transform="matrix(1.00, 0.00, -0.00, -1.00, 234.3, 292.3)">w</text><text xml:space="preserve" font-family="AvenirNext-Medium,Avenir Next" font-size="20.0" fill="#5D514B" transform="matrix(1.00, 0.00, -0.00, -1.00, 249.1, 292.3)">.</text><text xml:space="preserve" font-family="AvenirNext-Medium,Avenir Next" font-size="20.0" fill="#5D514B" transform="matrix(1.00, 0.00, -0.00, -1.00, 254.3, 292.3)">s</text><text xml:space="preserve" font-family="AvenirNext-Medium,Avenir Next" font-size="20.0" fill="#5D514B" transform="matrix(1.00, 0.00, -0.00, -1.00, 263.2, 292.3)">l</text><text xml:space="preserve" font-family="AvenirNext-Medium,Avenir Next" font-size="20.0" fill="#5D514B" transform="matrix(1.00, 0.00, -0.00, -1.00, 268.4, 292.3)">i</text><text xml:space="preserve" font-family="AvenirNext-Medium,Avenir Next" font-size="20.0" fill="#5D514B" transform="matrix(1.00, 0.00, -0.00, -1.00, 273.5, 292.3)">d</text><text xml:space="preserve" font-family="AvenirNext-Medium,Avenir Next" font-size="20.0" fill="#5D514B" transform="matrix(1.00, 0.00, -0.00, -1.00, 286.2, 292.3)">e</text><text xml:space="preserve" font-family="AvenirNext-Medium,Avenir Next" font-size="20.0" fill="#5D514B" transform="matrix(1.00, 0.00, -0.00, -1.00, 297.7, 292.3)">s</text><text xml:space="preserve" font-family="AvenirNext-Medium,Avenir Next" font-size="20.0" fill="#5D514B" transform="matrix(1.00, 0.00, -0.00, -1.00, 306.6, 292.3)">h</text><text xml:space="preserve" font-family="AvenirNext-Medium,Avenir Next" font-size="20.0" fill="#5D514B" transform="matrix(1.00, 0.00, -0.00, -1.00, 318.3, 292.3)">a</text><text xml:space="preserve" font-family="AvenirNext-Medium,Avenir Next" font-size="20.0" fill="#5D514B" transform="matrix(1.00, 0.00, -0.00, -1.00, 329.1, 292.3)">r</text><text xml:space="preserve" font-family="AvenirNext-Medium,Avenir Next" font-size="20.0" fill="#5D514B" transform="matrix(1.00, 0.00, -0.00, -1.00, 336.0, 292.3)">e</text><text xml:space="preserve" font-family="AvenirNext-Medium,Avenir Next" font-size="20.0" fill="#5D514B" transform="matrix(1.00, 0.00, -0.00, -1.00, 347.4, 292.3)">.</text><text xml:space="preserve" font-family="AvenirNext-Medium,Avenir Next" font-size="20.0" fill="#5D514B" transform="matrix(1.00, 0.00, -0.00, -1.00, 352.6, 292.3)">n</text><text xml:space="preserve" font-family="AvenirNext-Medium,Avenir Next" font-size="20.0" fill="#5D514B" transform="matrix(1.00, 0.00, -0.00, -1.00, 364.3, 292.3)">e</text><text xml:space="preserve" font-family="AvenirNext-Medium,Avenir Next" font-size="20.0" fill="#5D514B" transform="matrix(1.00, 0.00, -0.00, -1.00, 375.7, 292.3)">t</text><text xml:space="preserve" font-family="AvenirNext-Medium,Avenir Next" font-size="20.0" fill="#5D514B" transform="matrix(1.00, 0.00, -0.00, -1.00, 382.3, 292.3)">/</text><text xml:space="preserve" font-family="AvenirNext-Medium,Avenir Next" font-size="20.0" fill="#5D514B" transform="matrix(1.00, 0.00, -0.00, -1.00, 389.9, 292.3)">T</text><text xml:space="preserve" font-family="AvenirNext-Medium,Avenir Next" font-size="20.0" fill="#5D514B" transform="matrix(1.00, 0.00, -0.00, -1.00, 400.9, 292.3)">h</text><text xml:space="preserve" font-family="AvenirNext-Medium,Avenir Next" font-size="20.0" fill="#5D514B" transform="matrix(1.00, 0.00, -0.00, -1.00, 412.6, 292.3)">e</text><text xml:space="preserve" font-family="AvenirNext-Medium,Avenir Next" font-size="20.0" fill="#5D514B" transform="matrix(1.00, 0.00, -0.00, -1.00, 424.1, 292.3)">O</text><text xml:space="preserve" font-family="AvenirNext-Medium,Avenir Next" font-size="20.0" fill="#5D514B" transform="matrix(1.00, 0.00, -0.00, -1.00, 441.1, 292.3)">D</text><text xml:space="preserve" font-family="AvenirNext-Medium,Avenir Next" font-size="20.0" fill="#5D514B" transform="matrix(1.00, 0.00, -0.00, -1.00, 456.3, 292.3)">I</text><text xml:space="preserve" font-family="AvenirNext-Medium,Avenir Next" font-size="20.0" fill="#5D514B" transform="matrix(1.00, 0.00, -0.00, -1.00, 461.7, 292.3)">N</text><text xml:space="preserve" font-family="AvenirNext-Medium,Avenir Next" font-size="20.0" fill="#5D514B" transform="matrix(1.00, 0.00, -0.00, -1.00, 477.1, 292.3)">C</text><text xml:space="preserve" font-family="AvenirNext-Medium,Avenir Next" font-size="20.0" fill="#5D514B" transform="matrix(1.00, 0.00, -0.00, -1.00, 491.3, 292.3)">/</text><text xml:space="preserve" font-family="AvenirNext-Medium,Avenir Next" font-size="20.0" fill="#5D514B" transform="matrix(1.00, 0.00, -0.00, -1.00, 498.9, 292.3)">t</text><text xml:space="preserve" font-family="AvenirNext-Medium,Avenir Next" font-size="20.0" fill="#5D514B" transform="matrix(1.00, 0.00, -0.00, -1.00, 505.5, 292.3)">i</text><text xml:space="preserve" font-family="AvenirNext-Medium,Avenir Next" font-size="20.0" fill="#5D514B" transform="matrix(1.00, 0.00, -0.00, -1.00, 510.7, 292.3)">m</text><text xml:space="preserve" font-family="AvenirNext-Medium,Avenir Next" font-size="20.0" fill="#5D514B" transform="matrix(1.00, 0.00, -0.00, -1.00, 528.4, 292.3)">-</text><text xml:space="preserve" font-family="AvenirNext-Medium,Avenir Next" font-size="20.0" fill="#5D514B" transform="matrix(1.00, 0.00, -0.00, -1.00, 534.8, 292.3)">b</text><text xml:space="preserve" font-family="AvenirNext-Medium,Avenir Next" font-size="20.0" fill="#5D514B" transform="matrix(1.00, 0.00, -0.00, -1.00, 547.5, 292.3)">e</text><text xml:space="preserve" font-family="AvenirNext-Medium,Avenir Next" font-size="20.0" fill="#5D514B" transform="matrix(1.00, 0.00, -0.00, -1.00, 559.0, 292.3)">r</text><text xml:space="preserve" font-family="AvenirNext-Medium,Avenir Next" font-size="20.0" fill="#5D514B" transform="matrix(1.00, 0.00, -0.00, -1.00, 566.2, 292.3)">n</text><text xml:space="preserve" font-family="AvenirNext-Medium,Avenir Next" font-size="20.0" fill="#5D514B" transform="matrix(1.00, 0.00, -0.00, -1.00, 577.9, 292.3)">e</text><text xml:space="preserve" font-family="AvenirNext-Medium,Avenir Next" font-size="20.0" fill="#5D514B" transform="matrix(1.00, 0.00, -0.00, -1.00, 589.3, 292.3)">r</text><text xml:space="preserve" font-family="AvenirNext-Medium,Avenir Next" font-size="20.0" fill="#5D514B" transform="matrix(1.00, 0.00, -0.00, -1.00, 596.6, 292.3)">s</text><text xml:space="preserve" font-family="AvenirNext-Medium,Avenir Next" font-size="20.0" fill="#5D514B" transform="matrix(1.00, 0.00, -0.00, -1.00, 605.4, 292.3)">l</text><text xml:space="preserve" font-family="AvenirNext-Medium,Avenir Next" font-size="20.0" fill="#5D514B" transform="matrix(1.00, 0.00, -0.00, -1.00, 610.6, 292.3)">e</text><text xml:space="preserve" font-family="AvenirNext-Medium,Avenir Next" font-size="20.0" fill="#5D514B" transform="matrix(1.00, 0.00, -0.00, -1.00, 622.1, 292.3)">e</text><text xml:space="preserve" font-family="AvenirNext-Medium,Avenir Next" font-size="20.0" fill="#5D514B" transform="matrix(1.00, 0.00, -0.00, -1.00, 633.6, 292.3)">s</text><text xml:space="preserve" font-family="AvenirNext-Medium,Avenir Next" font-size="20.0" fill="#5D514B" transform="matrix(1.00, 0.00, -0.00, -1.00, 642.4, 292.3)">-</text><text xml:space="preserve" font-family="AvenirNext-Medium,Avenir Next" font-size="20.0" fill="#5D514B" transform="matrix(1.00, 0.00, -0.00, -1.00, 648.8, 292.3)">5</text><text xml:space="preserve" font-family="AvenirNext-Medium,Avenir Next" font-size="20.0" fill="#5D514B" transform="matrix(1.00, 0.00, -0.00, -1.00, 660.7, 292.3)">s</text><text xml:space="preserve" font-family="AvenirNext-Medium,Avenir Next" font-size="20.0" fill="#5D514B" transform="matrix(1.00, 0.00, -0.00, -1.00, 669.6, 292.3)">t</text><text xml:space="preserve" font-family="AvenirNext-Medium,Avenir Next" font-size="20.0" fill="#5D514B" transform="matrix(1.00, 0.00, -0.00, -1.00, 676.2, 292.3)">a</text><text xml:space="preserve" font-family="AvenirNext-Medium,Avenir Next" font-size="20.0" fill="#5D514B" transform="matrix(1.00, 0.00, -0.00, -1.00, 687.0, 292.3)">r</text><text xml:space="preserve" font-family="AvenirNext-Medium,Avenir Next" font-size="20.0" fill="#5D514B" transform="matrix(1.00, 0.00, -0.00, -1.00, 693.9, 292.3)">-</text><text xml:space="preserve" font-family="AvenirNext-Medium,Avenir Next" font-size="20.0" fill="#5D514B" transform="matrix(1.00, 0.00, -0.00, -1.00, 700.3, 292.3)">o</text><text xml:space="preserve" font-family="AvenirNext-Medium,Avenir Next" font-size="20.0" fill="#5D514B" transform="matrix(1.00, 0.00, -0.00, -1.00, 712.5, 292.3)">p</text><text xml:space="preserve" font-family="AvenirNext-Medium,Avenir Next" font-size="20.0" fill="#5D514B" transform="matrix(1.00, 0.00, -0.00, -1.00, 725.2, 292.3)">e</text><text xml:space="preserve" font-family="AvenirNext-Medium,Avenir Next" font-size="20.0" fill="#5D514B" transform="matrix(1.00, 0.00, -0.00, -1.00, 736.6, 292.3)">n</text><text xml:space="preserve" font-family="AvenirNext-Medium,Avenir Next" font-size="20.0" fill="#5D514B" transform="matrix(1.00, 0.00, -0.00, -1.00, 748.3, 292.3)">-</text><text xml:space="preserve" font-family="AvenirNext-Medium,Avenir Next" font-size="20.0" fill="#5D514B" transform="matrix(1.00, 0.00, -0.00, -1.00, 754.7, 292.3)">d</text><text xml:space="preserve" font-family="AvenirNext-Medium,Avenir Next" font-size="20.0" fill="#5D514B" transform="matrix(1.00, 0.00, -0.00, -1.00, 767.4, 292.3)">a</text><text xml:space="preserve" font-family="AvenirNext-Medium,Avenir Next" font-size="20.0" fill="#5D514B" transform="matrix(1.00, 0.00, -0.00, -1.00, 778.0, 292.3)">t</text><text xml:space="preserve" font-family="AvenirNext-Medium,Avenir Next" font-size="20.0" fill="#5D514B" transform="matrix(1.00, 0.00, -0.00, -1.00, 784.6, 292.3)">a</text><text xml:space="preserve" font-family="AvenirNext-Medium,Avenir Next" font-size="20.0" fill="#5D514B" transform="matrix(1.00, 0.00, -0.00, -1.00, 795.4, 292.3)">-</text><text xml:space="preserve" font-family="AvenirNext-Medium,Avenir Next" font-size="20.0" fill="#5D514B" transform="matrix(1.00, 0.00, -0.00, -1.00, 801.8, 292.3)">s</text><text xml:space="preserve" font-family="AvenirNext-Medium,Avenir Next" font-size="20.0" fill="#5D514B" transform="matrix(1.00, 0.00, -0.00, -1.00, 810.7, 292.3)">c</text><text xml:space="preserve" font-family="AvenirNext-Medium,Avenir Next" font-size="20.0" fill="#5D514B" transform="matrix(1.00, 0.00, -0.00, -1.00, 820.6, 292.3)">h</text><text xml:space="preserve" font-family="AvenirNext-Medium,Avenir Next" font-size="20.0" fill="#5D514B" transform="matrix(1.00, 0.00, -0.00, -1.00, 832.3, 292.3)">e</text><text xml:space="preserve" font-family="AvenirNext-Medium,Avenir Next" font-size="20.0" fill="#5D514B" transform="matrix(1.00, 0.00, -0.00, -1.00, 843.7, 292.3)">m</text><text xml:space="preserve" font-family="AvenirNext-Medium,Avenir Next" font-size="20.0" fill="#5D514B" transform="matrix(1.00, 0.00, -0.00, -1.00, 861.5, 292.3)">e</text><text xml:space="preserve" font-family="AvenirNext-Medium,Avenir Next" font-size="20.0" fill="#5D514B" transform="matrix(1.00, 0.00, -0.00, -1.00, 872.9, 292.3)"> </text><g><clipPath id="clip0x600000cb7280"><path d="M 144.0 289.3 L 872.9 289.3 L 872.9 292.3 L 144.0 292.3 Z M 144.0 289.3 "></path></clipPath><g clip-path="url(#clip0x600000cb7280)"><path d="M 74.0 272.2 L 801.9 272.2 " fill="none" stroke="#5D514B" stroke-width="1.00" transform="matrix(1.00, 0.00, 0.00, -1.00, 71.0, 563.0)"></path></g></g></g></svg>