<?xml version="1.0" encoding="UTF-8" standalone="no"?><svg xmlns="http://www.w3.org/2000/svg" xmlns:xlink="http://www.w3.org/1999/xlink" clip-rule="evenodd" stroke-miterlimit="10" viewBox="0 0 1024 768"><desc>SVG generated by Keynote</desc><defs></defs><g transform="matrix(1.00, 0.00, -0.00, -1.00, 0.0, 768.0)"><g><clipPath id="clip0x6100004be660"><path d="M 0.0 768.0 L 1024.0 768.0 L 1024.0 0.0 L 0.0 0.0 Z M 0.0 768.0 "></path></clipPath><g clip-path="url(#clip0x6100004be660)"><image xlink:href="../../7FC18F8E-5479-4DEA-8BBD-22B2C86A0A56/assets/B5EE15FD4291743AF7496326DC17A466.jpeg" width="2048.00" height="1536.00" transform="matrix(0.50, 0.00, -0.00, -0.50, 0.0, 768.0)"></image></g></g><g opacity="0.45"><g><clipPath id="clip0x6080006a3de0"><path d="M 30.0 48.0 L 994.0 48.0 L 994.0 741.0 L 30.0 741.0 Z M 30.0 48.0 "></path></clipPath><g clip-path="url(#clip0x6080006a3de0)"><image xlink:href="../../7FC18F8E-5479-4DEA-8BBD-22B2C86A0A56/assets/1E0376F862DA30D710D4F1E0694CAC10.png" width="1374.00" height="986.00" transform="matrix(0.70, 0.00, -0.00, -0.70, 31.0, 740.0)"></image></g></g></g><image xlink:href="29D6CDC3AB49A059CC5D294A8CCE7136.png" width="221.00" height="41.00" transform="matrix(1.00, 0.00, -0.00, -1.00, 75.0, 701.0)"></image><text xml:space="preserve" font-family="AvenirNext-Bold,Avenir Next" font-weight="bold" font-size="48.0" fill="#3D3B38" transform="matrix(1.00, 0.00, -0.00, -1.00, 74.0, 665.6)">L</text><text xml:space="preserve" font-family="AvenirNext-Bold,Avenir Next" font-weight="bold" font-size="48.0" fill="#3D3B38" transform="matrix(1.00, 0.00, -0.00, -1.00, 103.1, 665.6)">I</text><text xml:space="preserve" font-family="AvenirNext-Bold,Avenir Next" font-weight="bold" font-size="48.0" fill="#3D3B38" transform="matrix(1.00, 0.00, -0.00, -1.00, 122.2, 665.6)">C</text><text xml:space="preserve" font-family="AvenirNext-Bold,Avenir Next" font-weight="bold" font-size="48.0" fill="#3D3B38" transform="matrix(1.00, 0.00, -0.00, -1.00, 159.4, 665.6)">E</text><text xml:space="preserve" font-family="AvenirNext-Bold,Avenir Next" font-weight="bold" font-size="48.0" fill="#3D3B38" transform="matrix(1.00, 0.00, -0.00, -1.00, 192.4, 665.6)">N</text><text xml:space="preserve" font-family="AvenirNext-Bold,Avenir Next" font-weight="bold" font-size="48.0" fill="#3D3B38" transform="matrix(1.00, 0.00, -0.00, -1.00, 234.2, 665.6)">S</text><text xml:space="preserve" font-family="AvenirNext-Bold,Avenir Next" font-weight="bold" font-size="48.0" fill="#3D3B38" transform="matrix(1.00, 0.00, -0.00, -1.00, 266.4, 665.6)">E</text><image xlink:href="349BDE5D0D04C86329A3546B3AD15C42.jpeg" width="2048.00" height="1033.00" transform="matrix(0.39, 0.00, -0.00, -0.39, 109.0, 561.0)"></image><image xlink:href="C9CA235E723E51740EF42927C52BF961.png" width="392.00" height="18.00" transform="matrix(1.00, 0.00, -0.00, -1.00, 253.0, 120.0)"></image><text xml:space="preserve" font-family="AvenirNext-MediumItalic,Avenir Next" font-style="italic" font-size="17.0" fill="#5D514B" transform="matrix(1.00, 0.00, -0.00, -1.00, 254.8, 106.7)">P</text><text xml:space="preserve" font-family="AvenirNext-MediumItalic,Avenir Next" font-style="italic" font-size="17.0" fill="#5D514B" transform="matrix(1.00, 0.00, -0.00, -1.00, 264.9, 106.7)">R</text><text xml:space="preserve" font-family="AvenirNext-MediumItalic,Avenir Next" font-style="italic" font-size="17.0" fill="#5D514B" transform="matrix(1.00, 0.00, -0.00, -1.00, 275.3, 106.7)">I</text><text xml:space="preserve" font-family="AvenirNext-MediumItalic,Avenir Next" font-style="italic" font-size="17.0" fill="#5D514B" transform="matrix(1.00, 0.00, -0.00, -1.00, 279.9, 106.7)">N</text><text xml:space="preserve" font-family="AvenirNext-MediumItalic,Avenir Next" font-style="italic" font-size="17.0" fill="#5D514B" transform="matrix(1.00, 0.00, -0.00, -1.00, 292.9, 106.7)">C</text><text xml:space="preserve" font-family="AvenirNext-MediumItalic,Avenir Next" font-style="italic" font-size="17.0" fill="#5D514B" transform="matrix(1.00, 0.00, -0.00, -1.00, 304.8, 106.7)">E</text><text xml:space="preserve" font-family="AvenirNext-MediumItalic,Avenir Next" font-style="italic" font-size="17.0" fill="#5D514B" transform="matrix(1.00, 0.00, -0.00, -1.00, 314.7, 106.7)"> </text><text xml:space="preserve" font-family="AvenirNext-MediumItalic,Avenir Next" font-style="italic" font-size="17.0" fill="#5D514B" transform="matrix(1.00, 0.00, -0.00, -1.00, 319.0, 106.7)">E</text><text xml:space="preserve" font-family="AvenirNext-MediumItalic,Avenir Next" font-style="italic" font-size="17.0" fill="#5D514B" transform="matrix(1.00, 0.00, -0.00, -1.00, 328.9, 106.7)">D</text><text xml:space="preserve" font-family="AvenirNext-MediumItalic,Avenir Next" font-style="italic" font-size="17.0" fill="#5D514B" transform="matrix(1.00, 0.00, -0.00, -1.00, 341.6, 106.7)">W</text><text xml:space="preserve" font-family="AvenirNext-MediumItalic,Avenir Next" font-style="italic" font-size="17.0" fill="#5D514B" transform="matrix(1.00, 0.00, -0.00, -1.00, 358.1, 106.7)">A</text><text xml:space="preserve" font-family="AvenirNext-MediumItalic,Avenir Next" font-style="italic" font-size="17.0" fill="#5D514B" transform="matrix(1.00, 0.00, -0.00, -1.00, 369.7, 106.7)">R</text><text xml:space="preserve" font-family="AvenirNext-MediumItalic,Avenir Next" font-style="italic" font-size="17.0" fill="#5D514B" transform="matrix(1.00, 0.00, -0.00, -1.00, 380.1, 106.7)">D</text><text xml:space="preserve" font-family="AvenirNext-MediumItalic,Avenir Next" font-style="italic" font-size="17.0" fill="#5D514B" transform="matrix(1.00, 0.00, -0.00, -1.00, 393.0, 106.7)"> </text><text xml:space="preserve" font-family="AvenirNext-MediumItalic,Avenir Next" font-style="italic" font-size="17.0" fill="#5D514B" transform="matrix(1.00, 0.00, -0.00, -1.00, 397.2, 106.7)">I</text><text xml:space="preserve" font-family="AvenirNext-MediumItalic,Avenir Next" font-style="italic" font-size="17.0" fill="#5D514B" transform="matrix(1.00, 0.00, -0.00, -1.00, 401.9, 106.7)">S</text><text xml:space="preserve" font-family="AvenirNext-MediumItalic,Avenir Next" font-style="italic" font-size="17.0" fill="#5D514B" transform="matrix(1.00, 0.00, -0.00, -1.00, 411.5, 106.7)">L</text><text xml:space="preserve" font-family="AvenirNext-MediumItalic,Avenir Next" font-style="italic" font-size="17.0" fill="#5D514B" transform="matrix(1.00, 0.00, -0.00, -1.00, 420.2, 106.7)">A</text><text xml:space="preserve" font-family="AvenirNext-MediumItalic,Avenir Next" font-style="italic" font-size="17.0" fill="#5D514B" transform="matrix(1.00, 0.00, -0.00, -1.00, 431.8, 106.7)">N</text><text xml:space="preserve" font-family="AvenirNext-MediumItalic,Avenir Next" font-style="italic" font-size="17.0" fill="#5D514B" transform="matrix(1.00, 0.00, -0.00, -1.00, 444.8, 106.7)">D</text><text xml:space="preserve" font-family="AvenirNext-MediumItalic,Avenir Next" font-style="italic" font-size="17.0" fill="#5D514B" transform="matrix(1.00, 0.00, -0.00, -1.00, 457.7, 106.7)"> </text><text xml:space="preserve" font-family="AvenirNext-MediumItalic,Avenir Next" font-style="italic" font-size="17.0" fill="#5D514B" transform="matrix(1.00, 0.00, -0.00, -1.00, 462.0, 106.7)">1</text><text xml:space="preserve" font-family="AvenirNext-MediumItalic,Avenir Next" font-style="italic" font-size="17.0" fill="#5D514B" transform="matrix(1.00, 0.00, -0.00, -1.00, 472.1, 106.7)">9</text><text xml:space="preserve" font-family="AvenirNext-MediumItalic,Avenir Next" font-style="italic" font-size="17.0" fill="#5D514B" transform="matrix(1.00, 0.00, -0.00, -1.00, 482.2, 106.7)">7</text><text xml:space="preserve" font-family="AvenirNext-MediumItalic,Avenir Next" font-style="italic" font-size="17.0" fill="#5D514B" transform="matrix(1.00, 0.00, -0.00, -1.00, 492.3, 106.7)">3</text><text xml:space="preserve" font-family="AvenirNext-MediumItalic,Avenir Next" font-style="italic" font-size="17.0" fill="#5D514B" transform="matrix(1.00, 0.00, -0.00, -1.00, 502.4, 106.7)"> </text><text xml:space="preserve" font-family="AvenirNext-MediumItalic,Avenir Next" font-style="italic" font-size="17.0" fill="#5D514B" transform="matrix(1.00, 0.00, -0.00, -1.00, 506.7, 106.7)">—</text><text xml:space="preserve" font-family="AvenirNext-MediumItalic,Avenir Next" font-style="italic" font-size="17.0" fill="#5D514B" transform="matrix(1.00, 0.00, -0.00, -1.00, 516.9, 106.7)"> </text><text xml:space="preserve" font-family="AvenirNext-MediumItalic,Avenir Next" font-style="italic" font-size="17.0" fill="#5D514B" transform="matrix(1.00, 0.00, -0.00, -1.00, 521.1, 106.7)">L</text><text xml:space="preserve" font-family="AvenirNext-MediumItalic,Avenir Next" font-style="italic" font-size="17.0" fill="#5D514B" transform="matrix(1.00, 0.00, -0.00, -1.00, 529.8, 106.7)">I</text><text xml:space="preserve" font-family="AvenirNext-MediumItalic,Avenir Next" font-style="italic" font-size="17.0" fill="#5D514B" transform="matrix(1.00, 0.00, -0.00, -1.00, 534.4, 106.7)">C</text><text xml:space="preserve" font-family="AvenirNext-MediumItalic,Avenir Next" font-style="italic" font-size="17.0" fill="#5D514B" transform="matrix(1.00, 0.00, -0.00, -1.00, 546.3, 106.7)">E</text><text xml:space="preserve" font-family="AvenirNext-MediumItalic,Avenir Next" font-style="italic" font-size="17.0" fill="#5D514B" transform="matrix(1.00, 0.00, -0.00, -1.00, 556.2, 106.7)">N</text><text xml:space="preserve" font-family="AvenirNext-MediumItalic,Avenir Next" font-style="italic" font-size="17.0" fill="#5D514B" transform="matrix(1.00, 0.00, -0.00, -1.00, 569.3, 106.7)">S</text><text xml:space="preserve" font-family="AvenirNext-MediumItalic,Avenir Next" font-style="italic" font-size="17.0" fill="#5D514B" transform="matrix(1.00, 0.00, -0.00, -1.00, 578.9, 106.7)">E</text><text xml:space="preserve" font-family="AvenirNext-MediumItalic,Avenir Next" font-style="italic" font-size="17.0" fill="#5D514B" transform="matrix(1.00, 0.00, -0.00, -1.00, 588.8, 106.7)"> </text><text xml:space="preserve" font-family="AvenirNext-MediumItalic,Avenir Next" font-style="italic" font-size="17.0" fill="#5D514B" transform="matrix(1.00, 0.00, -0.00, -1.00, 593.1, 106.7)">P</text><text xml:space="preserve" font-family="AvenirNext-MediumItalic,Avenir Next" font-style="italic" font-size="17.0" fill="#5D514B" transform="matrix(1.00, 0.00, -0.00, -1.00, 603.2, 106.7)">L</text><text xml:space="preserve" font-family="AvenirNext-MediumItalic,Avenir Next" font-style="italic" font-size="17.0" fill="#5D514B" transform="matrix(1.00, 0.00, -0.00, -1.00, 611.9, 106.7)">A</text><text xml:space="preserve" font-family="AvenirNext-MediumItalic,Avenir Next" font-style="italic" font-size="17.0" fill="#5D514B" transform="matrix(1.00, 0.00, -0.00, -1.00, 623.2, 106.7)">T</text><text xml:space="preserve" font-family="AvenirNext-MediumItalic,Avenir Next" font-style="italic" font-size="17.0" fill="#5D514B" transform="matrix(1.00, 0.00, -0.00, -1.00, 632.3, 106.7)">E</text><image xlink:href="1F5BCB30A253477BC368AB4AD232C027.png" width="127.00" height="22.00" transform="matrix(1.00, 0.00, -0.00, -1.00, 643.0, 120.0)"></image><text xml:space="preserve" font-family="AvenirNext-MediumItalic,Avenir Next" font-style="italic" font-size="17.0" fill="#5D514B" transform="matrix(1.00, 0.00, -0.00, -1.00, 642.1, 106.7)"> </text><text xml:space="preserve" font-family="AvenirNext-MediumItalic,Avenir Next" font-style="italic" font-size="17.0" fill="#5D514B" transform="matrix(1.00, 0.00, -0.00, -1.00, 646.4, 106.7)">,</text><text xml:space="preserve" font-family="AvenirNext-MediumItalic,Avenir Next" font-style="italic" font-size="17.0" fill="#5D514B" transform="matrix(1.00, 0.00, -0.00, -1.00, 650.3, 106.7)"> </text><text xml:space="preserve" font-family="AvenirNext-MediumItalic,Avenir Next" font-style="italic" font-size="17.0" fill="#5D514B" transform="matrix(1.00, 0.00, -0.00, -1.00, 654.4, 106.7)">J</text><text xml:space="preserve" font-family="AvenirNext-MediumItalic,Avenir Next" font-style="italic" font-size="17.0" fill="#5D514B" transform="matrix(1.00, 0.00, -0.00, -1.00, 662.7, 106.7)">e</text><text xml:space="preserve" font-family="AvenirNext-MediumItalic,Avenir Next" font-style="italic" font-size="17.0" fill="#5D514B" transform="matrix(1.00, 0.00, -0.00, -1.00, 672.3, 106.7)">r</text><text xml:space="preserve" font-family="AvenirNext-MediumItalic,Avenir Next" font-style="italic" font-size="17.0" fill="#5D514B" transform="matrix(1.00, 0.00, -0.00, -1.00, 678.1, 106.7)">r</text><text xml:space="preserve" font-family="AvenirNext-MediumItalic,Avenir Next" font-style="italic" font-size="17.0" fill="#5D514B" transform="matrix(1.00, 0.00, -0.00, -1.00, 684.0, 106.7)">y</text><text xml:space="preserve" font-family="AvenirNext-MediumItalic,Avenir Next" font-style="italic" font-size="17.0" fill="#5D514B" transform="matrix(1.00, 0.00, -0.00, -1.00, 692.4, 106.7)"> </text><text xml:space="preserve" font-family="AvenirNext-MediumItalic,Avenir Next" font-style="italic" font-size="17.0" fill="#5D514B" transform="matrix(1.00, 0.00, -0.00, -1.00, 696.6, 106.7)">“</text><text xml:space="preserve" font-family="AvenirNext-MediumItalic,Avenir Next" font-style="italic" font-size="17.0" fill="#5D514B" transform="matrix(1.00, 0.00, -0.00, -1.00, 704.1, 106.7)">W</text><text xml:space="preserve" font-family="AvenirNext-MediumItalic,Avenir Next" font-style="italic" font-size="17.0" fill="#5D514B" transform="matrix(1.00, 0.00, -0.00, -1.00, 720.5, 106.7)">o</text><text xml:space="preserve" font-family="AvenirNext-MediumItalic,Avenir Next" font-style="italic" font-size="17.0" fill="#5D514B" transform="matrix(1.00, 0.00, -0.00, -1.00, 730.7, 106.7)">o</text><text xml:space="preserve" font-family="AvenirNext-MediumItalic,Avenir Next" font-style="italic" font-size="17.0" fill="#5D514B" transform="matrix(1.00, 0.00, -0.00, -1.00, 740.9, 106.7)">d</text><text xml:space="preserve" font-family="AvenirNext-MediumItalic,Avenir Next" font-style="italic" font-size="17.0" fill="#5D514B" transform="matrix(1.00, 0.00, -0.00, -1.00, 751.6, 106.7)">y</text><text xml:space="preserve" font-family="AvenirNext-MediumItalic,Avenir Next" font-style="italic" font-size="17.0" fill="#5D514B" transform="matrix(1.00, 0.00, -0.00, -1.00, 760.0, 106.7)">”</text><text xml:space="preserve" font-family="AvenirNext-MediumItalic,Avenir Next" font-style="italic" font-size="17.0" fill="#5D514B" transform="matrix(1.00, 0.00, -0.00, -1.00, 767.2, 106.7)"> </text><g><clipPath id="clip0x6000008ae1c0"><path d="M 253.8 104.0 L 642.1 104.0 L 642.1 106.9 L 253.8 106.9 Z M 253.8 104.0 "></path></clipPath><g clip-path="url(#clip0x6000008ae1c0)"><path d="M 89.3 22.1 L 476.7 22.1 " fill="none" stroke="#5D514B" stroke-width="0.85" transform="matrix(1.00, 0.00, 0.00, -1.00, 165.4, 127.5)"></path></g></g><image xlink:href="8E4B6FC204FD0F2F45B5368383AF31D7.png" width="106.00" height="18.00" transform="matrix(1.00, 0.00, -0.00, -1.00, 458.0, 69.0)"></image><text xml:space="preserve" font-family="AvenirNext-MediumItalic,Avenir Next" font-style="italic" font-size="17.0" fill="#5D514B" transform="matrix(1.00, 0.00, -0.00, -1.00, 460.0, 55.9)">C</text><text xml:space="preserve" font-family="AvenirNext-MediumItalic,Avenir Next" font-style="italic" font-size="17.0" fill="#5D514B" transform="matrix(1.00, 0.00, -0.00, -1.00, 471.7, 55.9)">C</text><text xml:space="preserve" font-family="AvenirNext-MediumItalic,Avenir Next" font-style="italic" font-size="17.0" fill="#5D514B" transform="matrix(1.00, 0.00, -0.00, -1.00, 483.6, 55.9)"> </text><text xml:space="preserve" font-family="AvenirNext-MediumItalic,Avenir Next" font-style="italic" font-size="17.0" fill="#5D514B" transform="matrix(1.00, 0.00, -0.00, -1.00, 487.8, 55.9)">B</text><text xml:space="preserve" font-family="AvenirNext-MediumItalic,Avenir Next" font-style="italic" font-size="17.0" fill="#5D514B" transform="matrix(1.00, 0.00, -0.00, -1.00, 498.5, 55.9)">Y</text><text xml:space="preserve" font-family="AvenirNext-MediumItalic,Avenir Next" font-style="italic" font-size="17.0" fill="#5D514B" transform="matrix(1.00, 0.00, -0.00, -1.00, 507.0, 55.9)">-</text><text xml:space="preserve" font-family="AvenirNext-MediumItalic,Avenir Next" font-style="italic" font-size="17.0" fill="#5D514B" transform="matrix(1.00, 0.00, -0.00, -1.00, 512.2, 55.9)">S</text><text xml:space="preserve" font-family="AvenirNext-MediumItalic,Avenir Next" font-style="italic" font-size="17.0" fill="#5D514B" transform="matrix(1.00, 0.00, -0.00, -1.00, 521.9, 55.9)">A</text><text xml:space="preserve" font-family="AvenirNext-MediumItalic,Avenir Next" font-style="italic" font-size="17.0" fill="#5D514B" transform="matrix(1.00, 0.00, -0.00, -1.00, 533.1, 55.9)"> </text><text xml:space="preserve" font-family="AvenirNext-MediumItalic,Avenir Next" font-style="italic" font-size="17.0" fill="#5D514B" transform="matrix(1.00, 0.00, -0.00, -1.00, 537.4, 55.9)">2</text><text xml:space="preserve" font-family="AvenirNext-MediumItalic,Avenir Next" font-style="italic" font-size="17.0" fill="#5D514B" transform="matrix(1.00, 0.00, -0.00, -1.00, 547.5, 55.9)">.</text><text xml:space="preserve" font-family="AvenirNext-MediumItalic,Avenir Next" font-style="italic" font-size="17.0" fill="#5D514B" transform="matrix(1.00, 0.00, -0.00, -1.00, 551.9, 55.9)">0</text><g><clipPath id="clip0x6000008ad920"><path d="M 459.0 53.2 L 562.0 53.2 L 562.0 56.0 L 459.0 56.0 Z M 459.0 53.2 "></path></clipPath><g clip-path="url(#clip0x6000008ad920)"><path d="M 22.7 22.1 L 124.8 22.1 " fill="none" stroke="#5D514B" stroke-width="0.85" transform="matrix(1.00, 0.00, 0.00, -1.00, 437.3, 76.7)"></path></g></g></g></svg>