<?xml version="1.0" encoding="UTF-8" standalone="no"?><svg xmlns="http://www.w3.org/2000/svg" xmlns:xlink="http://www.w3.org/1999/xlink" clip-rule="evenodd" stroke-miterlimit="10" viewBox="0 0 1024 768"><desc>SVG generated by Keynote</desc><defs><pattern id="A7728C3F-A441-44FF-B43F-40829F4911F2" patternUnits="userSpaceOnUse" width="500" height="500" viewBox="0 0 500 500"><image xlink:href="../../05127A97-0DCB-4834-96B2-EAE1F9F8243D/assets/B1BB401D260220CE6C27ED8098254CF4.png" width="500.00" height="500.00"></image></pattern></defs><g transform="matrix(1.00, 0.00, -0.00, -1.00, 0.0, 768.0)"><g><clipPath id="clip0x6000008a15c0"><path d="M 0.0 768.0 L 1024.0 768.0 L 1024.0 0.0 L 0.0 0.0 Z M 0.0 768.0 "></path></clipPath><g clip-path="url(#clip0x6000008a15c0)"><image xlink:href="../../7FC18F8E-5479-4DEA-8BBD-22B2C86A0A56/assets/B5EE15FD4291743AF7496326DC17A466.jpeg" width="2048.00" height="1536.00" transform="matrix(0.50, 0.00, -0.00, -0.50, 0.0, 768.0)"></image></g></g><g opacity="0.45"><g><clipPath id="clip0x6100006a4320"><path d="M 30.0 48.0 L 994.0 48.0 L 994.0 741.0 L 30.0 741.0 Z M 30.0 48.0 "></path></clipPath><g clip-path="url(#clip0x6100006a4320)"><image xlink:href="../../7FC18F8E-5479-4DEA-8BBD-22B2C86A0A56/assets/1E0376F862DA30D710D4F1E0694CAC10.png" width="1374.00" height="986.00" transform="matrix(0.70, 0.00, -0.00, -0.70, 31.0, 740.0)"></image></g></g></g><image xlink:href="../../05127A97-0DCB-4834-96B2-EAE1F9F8243D/assets/98932D4DE77CE8B07FC9818B357166FF.png" width="202.00" height="51.00" transform="matrix(1.00, 0.00, -0.00, -1.00, 190.4, 572.2)" opacity="0.30"></image><g><clipPath id="clip0x6100004bf380"><path d="M 193.6 541.0 L 194.0 556.2 C 194.0 564.5 200.3 571.0 208.6 571.0 L 374.7 571.0 C 383.0 571.0 390.0 564.5 390.0 556.2 L 390.0 541.0 C 390.0 532.7 383.0 526.0 374.7 526.0 L 208.6 526.0 C 200.3 526.0 193.6 532.7 193.6 541.0 Z M 193.6 541.0 "></path></clipPath><g clip-path="url(#clip0x6100004bf380)"><image xlink:href="../../05127A97-0DCB-4834-96B2-EAE1F9F8243D/assets/B1BB401D260220CE6C27ED8098254CF4.png" width="500.00" height="500.00" transform="matrix(0.50, 0.00, -0.00, -0.50, 193.6, 571.0)"></image></g></g><image xlink:href="../../05127A97-0DCB-4834-96B2-EAE1F9F8243D/assets/BB95B63D522D15BE5207F2285AAAA71E.png" width="148.00" height="72.00" transform="matrix(1.00, 0.00, -0.00, -1.00, 690.4, 213.8)" opacity="0.30"></image><g><clipPath id="clip0x6180008a38a0"><path d="M 693.6 162.2 L 694.0 197.8 C 694.0 206.1 700.3 213.0 708.6 213.0 L 820.6 213.0 C 828.9 213.0 836.0 206.1 836.0 197.8 L 836.0 162.2 C 836.0 153.9 828.9 147.0 820.6 147.0 L 708.6 147.0 C 700.3 147.0 693.6 153.9 693.6 162.2 Z M 693.6 162.2 "></path></clipPath><g clip-path="url(#clip0x6180008a38a0)"><image xlink:href="../../05127A97-0DCB-4834-96B2-EAE1F9F8243D/assets/B1BB401D260220CE6C27ED8098254CF4.png" width="500.00" height="500.00" transform="matrix(0.50, 0.00, -0.00, -0.50, 693.6, 213.0)"></image></g></g><image xlink:href="../../05127A97-0DCB-4834-96B2-EAE1F9F8243D/assets/EAA4149B229EFD168AECBDE247C14567.png" width="307.00" height="58.00" transform="matrix(1.00, 0.00, -0.00, -1.00, 367.0, 393.0)" opacity="0.30"></image><g><clipPath id="clip0x6000008a0420"><path d="M 370.2 355.0 L 370.0 377.0 C 370.0 385.3 376.9 392.0 385.2 392.0 L 656.0 392.0 C 664.3 392.0 671.0 385.3 671.0 377.0 L 671.0 355.0 C 671.0 346.7 664.3 340.0 656.0 340.0 L 385.2 340.0 C 376.9 340.0 370.2 346.7 370.2 355.0 Z M 370.2 355.0 "></path></clipPath><g clip-path="url(#clip0x6000008a0420)"><path d="M 370.0 340.0 L 671.0 340.0 L 671.0 392.0 L 370.0 392.0 Z M 370.0 340.0 " fill="url(#A7728C3F-A441-44FF-B43F-40829F4911F2)"></path></g></g><image xlink:href="../../7FC18F8E-5479-4DEA-8BBD-22B2C86A0A56/assets/58888E124DE8E2DEB6E5B0BE087D9064.png" width="314.00" height="41.00" transform="matrix(1.00, 0.00, -0.00, -1.00, 74.0, 701.0)"></image><text xml:space="preserve" font-family="AvenirNext-Bold,Avenir Next" font-weight="bold" font-size="48.0" fill="#3D3B38" transform="matrix(1.00, 0.00, -0.00, -1.00, 75.0, 665.6)">O</text><text xml:space="preserve" font-family="AvenirNext-Bold,Avenir Next" font-weight="bold" font-size="48.0" fill="#3D3B38" transform="matrix(1.00, 0.00, -0.00, -1.00, 119.7, 665.6)">P</text><text xml:space="preserve" font-family="AvenirNext-Bold,Avenir Next" font-weight="bold" font-size="48.0" fill="#3D3B38" transform="matrix(1.00, 0.00, -0.00, -1.00, 154.2, 665.6)">E</text><text xml:space="preserve" font-family="AvenirNext-Bold,Avenir Next" font-weight="bold" font-size="48.0" fill="#3D3B38" transform="matrix(1.00, 0.00, -0.00, -1.00, 187.2, 665.6)">N</text><text xml:space="preserve" font-family="AvenirNext-Bold,Avenir Next" font-weight="bold" font-size="48.0" fill="#3D3B38" transform="matrix(1.00, 0.00, -0.00, -1.00, 229.0, 665.6)"> </text><text xml:space="preserve" font-family="AvenirNext-Bold,Avenir Next" font-weight="bold" font-size="48.0" fill="#3D3B38" transform="matrix(1.00, 0.00, -0.00, -1.00, 244.8, 665.6)">D</text><text xml:space="preserve" font-family="AvenirNext-Bold,Avenir Next" font-weight="bold" font-size="48.0" fill="#3D3B38" transform="matrix(1.00, 0.00, -0.00, -1.00, 284.7, 665.6)">A</text><text xml:space="preserve" font-family="AvenirNext-Bold,Avenir Next" font-weight="bold" font-size="48.0" fill="#3D3B38" transform="matrix(1.00, 0.00, -0.00, -1.00, 320.6, 665.6)">T</text><text xml:space="preserve" font-family="AvenirNext-Bold,Avenir Next" font-weight="bold" font-size="48.0" fill="#3D3B38" transform="matrix(1.00, 0.00, -0.00, -1.00, 349.5, 665.6)">A</text><image xlink:href="../../05127A97-0DCB-4834-96B2-EAE1F9F8243D/assets/E248282FFE69EC941C4B8E3B49BBE2AE.png" width="153.00" height="29.00" transform="matrix(1.00, 0.00, -0.00, -1.00, 208.0, 566.0)"></image><text xml:space="preserve" font-family="AvenirNext-DemiBoldItalic,Avenir Next" font-style="italic" font-weight="bold" font-size="32.0" fill="#5D514B" transform="matrix(1.00, 0.00, -0.00, -1.00, 209.6, 541.7)">a</text><text xml:space="preserve" font-family="AvenirNext-DemiBoldItalic,Avenir Next" font-style="italic" font-weight="bold" font-size="32.0" fill="#5D514B" transform="matrix(1.00, 0.00, -0.00, -1.00, 226.9, 541.7)">c</text><text xml:space="preserve" font-family="AvenirNext-DemiBoldItalic,Avenir Next" font-style="italic" font-weight="bold" font-size="32.0" fill="#5D514B" transform="matrix(1.00, 0.00, -0.00, -1.00, 242.6, 541.7)">c</text><text xml:space="preserve" font-family="AvenirNext-DemiBoldItalic,Avenir Next" font-style="italic" font-weight="bold" font-size="32.0" fill="#5D514B" transform="matrix(1.00, 0.00, -0.00, -1.00, 258.4, 541.7)">e</text><text xml:space="preserve" font-family="AvenirNext-DemiBoldItalic,Avenir Next" font-style="italic" font-weight="bold" font-size="32.0" fill="#5D514B" transform="matrix(1.00, 0.00, -0.00, -1.00, 276.4, 541.7)">s</text><text xml:space="preserve" font-family="AvenirNext-DemiBoldItalic,Avenir Next" font-style="italic" font-weight="bold" font-size="32.0" fill="#5D514B" transform="matrix(1.00, 0.00, -0.00, -1.00, 290.6, 541.7)">s</text><text xml:space="preserve" font-family="AvenirNext-DemiBoldItalic,Avenir Next" font-style="italic" font-weight="bold" font-size="32.0" fill="#5D514B" transform="matrix(1.00, 0.00, -0.00, -1.00, 304.8, 541.7)">i</text><text xml:space="preserve" font-family="AvenirNext-DemiBoldItalic,Avenir Next" font-style="italic" font-weight="bold" font-size="32.0" fill="#5D514B" transform="matrix(1.00, 0.00, -0.00, -1.00, 313.4, 541.7)">b</text><text xml:space="preserve" font-family="AvenirNext-DemiBoldItalic,Avenir Next" font-style="italic" font-weight="bold" font-size="32.0" fill="#5D514B" transform="matrix(1.00, 0.00, -0.00, -1.00, 333.8, 541.7)">l</text><text xml:space="preserve" font-family="AvenirNext-DemiBoldItalic,Avenir Next" font-style="italic" font-weight="bold" font-size="32.0" fill="#5D514B" transform="matrix(1.00, 0.00, -0.00, -1.00, 342.3, 541.7)">e</text><image xlink:href="../../05127A97-0DCB-4834-96B2-EAE1F9F8243D/assets/DF63EFAC9B58E4DCA63ECB8F8447AE7E.png" width="267.00" height="29.00" transform="matrix(1.00, 0.00, -0.00, -1.00, 387.0, 380.0)"></image><text xml:space="preserve" font-family="AvenirNext-DemiBoldItalic,Avenir Next" font-style="italic" font-weight="bold" font-size="32.0" fill="#5D514B" transform="matrix(1.00, 0.00, -0.00, -1.00, 389.2, 355.7)">m</text><text xml:space="preserve" font-family="AvenirNext-DemiBoldItalic,Avenir Next" font-style="italic" font-weight="bold" font-size="32.0" fill="#5D514B" transform="matrix(1.00, 0.00, -0.00, -1.00, 417.8, 355.7)">a</text><text xml:space="preserve" font-family="AvenirNext-DemiBoldItalic,Avenir Next" font-style="italic" font-weight="bold" font-size="32.0" fill="#5D514B" transform="matrix(1.00, 0.00, -0.00, -1.00, 435.0, 355.7)">c</text><text xml:space="preserve" font-family="AvenirNext-DemiBoldItalic,Avenir Next" font-style="italic" font-weight="bold" font-size="32.0" fill="#5D514B" transform="matrix(1.00, 0.00, -0.00, -1.00, 450.8, 355.7)">h</text><text xml:space="preserve" font-family="AvenirNext-DemiBoldItalic,Avenir Next" font-style="italic" font-weight="bold" font-size="32.0" fill="#5D514B" transform="matrix(1.00, 0.00, -0.00, -1.00, 469.4, 355.7)">i</text><text xml:space="preserve" font-family="AvenirNext-DemiBoldItalic,Avenir Next" font-style="italic" font-weight="bold" font-size="32.0" fill="#5D514B" transform="matrix(1.00, 0.00, -0.00, -1.00, 478.0, 355.7)">n</text><text xml:space="preserve" font-family="AvenirNext-DemiBoldItalic,Avenir Next" font-style="italic" font-weight="bold" font-size="32.0" fill="#5D514B" transform="matrix(1.00, 0.00, -0.00, -1.00, 496.7, 355.7)">e</text><text xml:space="preserve" font-family="AvenirNext-DemiBoldItalic,Avenir Next" font-style="italic" font-weight="bold" font-size="32.0" fill="#5D514B" transform="matrix(1.00, 0.00, -0.00, -1.00, 514.7, 355.7)"> </text><text xml:space="preserve" font-family="AvenirNext-DemiBoldItalic,Avenir Next" font-style="italic" font-weight="bold" font-size="32.0" fill="#5D514B" transform="matrix(1.00, 0.00, -0.00, -1.00, 522.7, 355.7)">r</text><text xml:space="preserve" font-family="AvenirNext-DemiBoldItalic,Avenir Next" font-style="italic" font-weight="bold" font-size="32.0" fill="#5D514B" transform="matrix(1.00, 0.00, -0.00, -1.00, 533.2, 355.7)">e</text><text xml:space="preserve" font-family="AvenirNext-DemiBoldItalic,Avenir Next" font-style="italic" font-weight="bold" font-size="32.0" fill="#5D514B" transform="matrix(1.00, 0.00, -0.00, -1.00, 551.0, 355.7)">a</text><text xml:space="preserve" font-family="AvenirNext-DemiBoldItalic,Avenir Next" font-style="italic" font-weight="bold" font-size="32.0" fill="#5D514B" transform="matrix(1.00, 0.00, -0.00, -1.00, 568.3, 355.7)">d</text><text xml:space="preserve" font-family="AvenirNext-DemiBoldItalic,Avenir Next" font-style="italic" font-weight="bold" font-size="32.0" fill="#5D514B" transform="matrix(1.00, 0.00, -0.00, -1.00, 588.6, 355.7)">a</text><text xml:space="preserve" font-family="AvenirNext-DemiBoldItalic,Avenir Next" font-style="italic" font-weight="bold" font-size="32.0" fill="#5D514B" transform="matrix(1.00, 0.00, -0.00, -1.00, 605.8, 355.7)">b</text><text xml:space="preserve" font-family="AvenirNext-DemiBoldItalic,Avenir Next" font-style="italic" font-weight="bold" font-size="32.0" fill="#5D514B" transform="matrix(1.00, 0.00, -0.00, -1.00, 626.2, 355.7)">l</text><text xml:space="preserve" font-family="AvenirNext-DemiBoldItalic,Avenir Next" font-style="italic" font-weight="bold" font-size="32.0" fill="#5D514B" transform="matrix(1.00, 0.00, -0.00, -1.00, 634.8, 355.7)">e</text><image xlink:href="../../05127A97-0DCB-4834-96B2-EAE1F9F8243D/assets/B41F0FC42E06F5D9E8BC4421949295DA.png" width="105.00" height="29.00" transform="matrix(1.00, 0.00, -0.00, -1.00, 712.0, 194.0)"></image><text xml:space="preserve" font-family="AvenirNext-DemiBoldItalic,Avenir Next" font-style="italic" font-weight="bold" font-size="32.0" fill="#5D514B" transform="matrix(1.00, 0.00, -0.00, -1.00, 714.1, 169.7)">l</text><text xml:space="preserve" font-family="AvenirNext-DemiBoldItalic,Avenir Next" font-style="italic" font-weight="bold" font-size="32.0" fill="#5D514B" transform="matrix(1.00, 0.00, -0.00, -1.00, 722.6, 169.7)">i</text><text xml:space="preserve" font-family="AvenirNext-DemiBoldItalic,Avenir Next" font-style="italic" font-weight="bold" font-size="32.0" fill="#5D514B" transform="matrix(1.00, 0.00, -0.00, -1.00, 731.2, 169.7)">c</text><text xml:space="preserve" font-family="AvenirNext-DemiBoldItalic,Avenir Next" font-style="italic" font-weight="bold" font-size="32.0" fill="#5D514B" transform="matrix(1.00, 0.00, -0.00, -1.00, 746.9, 169.7)">e</text><text xml:space="preserve" font-family="AvenirNext-DemiBoldItalic,Avenir Next" font-style="italic" font-weight="bold" font-size="32.0" fill="#5D514B" transform="matrix(1.00, 0.00, -0.00, -1.00, 765.0, 169.7)">n</text><text xml:space="preserve" font-family="AvenirNext-DemiBoldItalic,Avenir Next" font-style="italic" font-weight="bold" font-size="32.0" fill="#5D514B" transform="matrix(1.00, 0.00, -0.00, -1.00, 783.7, 169.7)">s</text><text xml:space="preserve" font-family="AvenirNext-DemiBoldItalic,Avenir Next" font-style="italic" font-weight="bold" font-size="32.0" fill="#5D514B" transform="matrix(1.00, 0.00, -0.00, -1.00, 797.9, 169.7)">e</text></g></svg>