<?xml version="1.0" encoding="UTF-8" standalone="no"?><svg xmlns="http://www.w3.org/2000/svg" xmlns:xlink="http://www.w3.org/1999/xlink" clip-rule="evenodd" stroke-miterlimit="10" viewBox="0 0 1024 768"><desc>SVG generated by Keynote</desc><defs><pattern id="4FF92224-63F7-497B-AD5B-4F1D0AC5E5D7" patternUnits="userSpaceOnUse" width="500" height="500" viewBox="0 0 500 500"><image xlink:href="../../05127A97-0DCB-4834-96B2-EAE1F9F8243D/assets/B1BB401D260220CE6C27ED8098254CF4.png" width="500.00" height="500.00"></image></pattern><pattern id="0D7F3A39-0019-4F3F-A8BE-AB911B9A251A" patternUnits="userSpaceOnUse" width="500" height="500" viewBox="0 0 500 500"><image xlink:href="../../05127A97-0DCB-4834-96B2-EAE1F9F8243D/assets/B1BB401D260220CE6C27ED8098254CF4.png" width="500.00" height="500.00"></image></pattern></defs><g transform="matrix(1.00, 0.00, -0.00, -1.00, 0.0, 768.0)"><g><clipPath id="clip0x6180006ac360"><path d="M 0.0 768.0 L 1024.0 768.0 L 1024.0 0.0 L 0.0 0.0 Z M 0.0 768.0 "></path></clipPath><g clip-path="url(#clip0x6180006ac360)"><image xlink:href="../../7FC18F8E-5479-4DEA-8BBD-22B2C86A0A56/assets/B5EE15FD4291743AF7496326DC17A466.jpeg" width="2048.00" height="1536.00" transform="matrix(0.50, 0.00, -0.00, -0.50, 0.0, 768.0)"></image></g></g><g opacity="0.45"><g><clipPath id="clip0x6180008b9620"><path d="M 30.0 48.0 L 994.0 48.0 L 994.0 741.0 L 30.0 741.0 Z M 30.0 48.0 "></path></clipPath><g clip-path="url(#clip0x6180008b9620)"><image xlink:href="../../7FC18F8E-5479-4DEA-8BBD-22B2C86A0A56/assets/1E0376F862DA30D710D4F1E0694CAC10.png" width="1374.00" height="986.00" transform="matrix(0.70, 0.00, -0.00, -0.70, 31.0, 740.0)"></image></g></g></g><image xlink:href="D640010D40F7BDAC457A5E6327454979.png" width="202.00" height="58.00" transform="matrix(1.00, 0.00, -0.00, -1.00, 609.9, 194.5)" opacity="0.30"></image><g><clipPath id="clip0x618000aa5160"><path d="M 613.1 156.5 L 613.0 178.5 C 613.0 186.8 619.9 193.0 628.1 193.0 L 794.2 193.0 C 802.5 193.0 809.0 186.8 809.0 178.5 L 809.0 156.5 C 809.0 148.2 802.5 141.0 794.2 141.0 L 628.1 141.0 C 619.9 141.0 613.1 148.2 613.1 156.5 Z M 613.1 156.5 "></path></clipPath><g clip-path="url(#clip0x618000aa5160)"><image xlink:href="../../05127A97-0DCB-4834-96B2-EAE1F9F8243D/assets/B1BB401D260220CE6C27ED8098254CF4.png" width="500.00" height="500.00" transform="matrix(0.50, 0.00, -0.00, -0.50, 613.0, 193.0)"></image></g></g><image xlink:href="33061DE39EFFD58FBE2A7D84EF6ADA21.png" width="254.00" height="58.00" transform="matrix(1.00, 0.00, -0.00, -1.00, 679.9, 314.9)" opacity="0.30"></image><g><clipPath id="clip0x600000ca4bc0"><path d="M 683.1 276.9 L 683.0 298.9 C 683.0 307.2 689.9 314.0 698.1 314.0 L 916.4 314.0 C 924.7 314.0 931.0 307.2 931.0 298.9 L 931.0 276.9 C 931.0 268.6 924.7 262.0 916.4 262.0 L 698.1 262.0 C 689.9 262.0 683.1 268.6 683.1 276.9 Z M 683.1 276.9 "></path></clipPath><g clip-path="url(#clip0x600000ca4bc0)"><image xlink:href="../../05127A97-0DCB-4834-96B2-EAE1F9F8243D/assets/B1BB401D260220CE6C27ED8098254CF4.png" width="500.00" height="500.00" transform="matrix(0.50, 0.00, -0.00, -0.50, 683.0, 314.0)"></image></g></g><image xlink:href="../../4578D8F1-1CA0-41E8-9D10-331545025E65/assets/C565138B0AD390D524DCC47059E7A5B0.png" width="242.00" height="58.00" transform="matrix(1.00, 0.00, -0.00, -1.00, 410.7, 411.0)" opacity="0.30"></image><g><clipPath id="clip0x600000ca99c0"><path d="M 414.0 373.0 L 414.0 395.0 C 414.0 403.3 420.7 410.0 429.0 410.0 L 635.0 410.0 C 643.3 410.0 650.0 403.3 650.0 395.0 L 650.0 373.0 C 650.0 364.7 643.3 358.0 635.0 358.0 L 429.0 358.0 C 420.7 358.0 414.0 364.7 414.0 373.0 Z M 414.0 373.0 "></path></clipPath><g clip-path="url(#clip0x600000ca99c0)"><image xlink:href="../../05127A97-0DCB-4834-96B2-EAE1F9F8243D/assets/B1BB401D260220CE6C27ED8098254CF4.png" width="500.00" height="500.00" transform="matrix(0.50, 0.00, -0.00, -0.50, 414.0, 410.0)"></image></g></g><image xlink:href="1076205B90F64B9F7C8023DAE6653C36.png" width="133.00" height="58.00" transform="matrix(1.00, 0.00, -0.00, -1.00, 130.0, 374.0)" opacity="0.30"></image><g><clipPath id="clip0x600000ca46e0"><path d="M 133.2 336.0 L 133.0 358.0 C 133.0 366.3 139.9 373.0 148.2 373.0 L 245.1 373.0 C 253.4 373.0 260.0 366.3 260.0 358.0 L 260.0 336.0 C 260.0 327.7 253.4 321.0 245.1 321.0 L 148.2 321.0 C 139.9 321.0 133.2 327.7 133.2 336.0 Z M 133.2 336.0 "></path></clipPath><g clip-path="url(#clip0x600000ca46e0)"><image xlink:href="../../05127A97-0DCB-4834-96B2-EAE1F9F8243D/assets/B1BB401D260220CE6C27ED8098254CF4.png" width="500.00" height="500.00" transform="matrix(0.50, 0.00, -0.00, -0.50, 133.0, 373.0)"></image></g></g><image xlink:href="../../4578D8F1-1CA0-41E8-9D10-331545025E65/assets/2284B783B5EFAE6D18F20EDB52F9B4E4.png" width="328.00" height="58.00" transform="matrix(1.00, 0.00, -0.00, -1.00, 367.9, 507.1)" opacity="0.30"></image><g><clipPath id="clip0x6080006bcfe0"><path d="M 371.1 469.1 L 371.0 491.1 C 371.0 499.4 377.9 506.0 386.1 506.0 L 677.9 506.0 C 686.1 506.0 693.0 499.4 693.0 491.1 L 693.0 469.1 C 693.0 460.8 686.1 454.0 677.9 454.0 L 386.1 454.0 C 377.9 454.0 371.1 460.8 371.1 469.1 Z M 371.1 469.1 "></path></clipPath><g clip-path="url(#clip0x6080006bcfe0)"><path d="M 371.0 454.0 L 693.0 454.0 L 693.0 506.0 L 371.0 506.0 Z M 371.0 454.0 " fill="url(#4FF92224-63F7-497B-AD5B-4F1D0AC5E5D7)"></path></g></g><image xlink:href="../../4578D8F1-1CA0-41E8-9D10-331545025E65/assets/09EDB4F77B98940D9FCB1621269AF3A6.png" width="202.00" height="58.00" transform="matrix(1.00, 0.00, -0.00, -1.00, 430.7, 603.3)" opacity="0.30"></image><g><clipPath id="clip0x6100008bbd20"><path d="M 434.0 565.2 L 434.0 587.2 C 434.0 595.5 440.7 602.0 449.0 602.0 L 615.0 602.0 C 623.3 602.0 630.0 595.5 630.0 587.2 L 630.0 565.2 C 630.0 557.0 623.3 550.0 615.0 550.0 L 449.0 550.0 C 440.7 550.0 434.0 557.0 434.0 565.2 Z M 434.0 565.2 "></path></clipPath><g clip-path="url(#clip0x6100008bbd20)"><image xlink:href="../../05127A97-0DCB-4834-96B2-EAE1F9F8243D/assets/B1BB401D260220CE6C27ED8098254CF4.png" width="500.00" height="500.00" transform="matrix(0.50, 0.00, -0.00, -0.50, 434.0, 602.0)"></image></g></g><image xlink:href="1C2F7AA6708973E480C46C001A9BA7BA.png" width="320.00" height="58.00" transform="matrix(1.00, 0.00, -0.00, -1.00, 234.9, 256.5)" opacity="0.30"></image><g><clipPath id="clip0x600000ca7bc0"><path d="M 238.1 218.5 L 238.0 240.5 C 238.0 248.8 244.9 255.0 253.1 255.0 L 537.3 255.0 C 545.6 255.0 552.0 248.8 552.0 240.5 L 552.0 218.5 C 552.0 210.2 545.6 203.0 537.3 203.0 L 253.1 203.0 C 244.9 203.0 238.1 210.2 238.1 218.5 Z M 238.1 218.5 "></path></clipPath><g clip-path="url(#clip0x600000ca7bc0)"><path d="M 238.0 203.0 L 552.0 203.0 L 552.0 255.0 L 238.0 255.0 Z M 238.0 203.0 " fill="url(#0D7F3A39-0019-4F3F-A8BE-AB911B9A251A)"></path></g></g><image xlink:href="../../DF5E5B08-6C0A-4543-8564-07EA01AC96AE/assets/D4338225D15FBCF2D7EBD4B47790621D.png" width="307.00" height="41.00" transform="matrix(1.00, 0.00, -0.00, -1.00, 75.0, 701.0)"></image><text xml:space="preserve" font-family="AvenirNext-DemiBold,Avenir Next" font-weight="bold" font-size="48.0" fill="#3D3B38" transform="matrix(1.00, 0.00, -0.00, -1.00, 75.0, 665.6)">O</text><text xml:space="preserve" font-family="AvenirNext-DemiBold,Avenir Next" font-weight="bold" font-size="48.0" fill="#3D3B38" transform="matrix(1.00, 0.00, -0.00, -1.00, 119.6, 665.6)">P</text><text xml:space="preserve" font-family="AvenirNext-DemiBold,Avenir Next" font-weight="bold" font-size="48.0" fill="#3D3B38" transform="matrix(1.00, 0.00, -0.00, -1.00, 152.7, 665.6)">E</text><text xml:space="preserve" font-family="AvenirNext-DemiBold,Avenir Next" font-weight="bold" font-size="48.0" fill="#3D3B38" transform="matrix(1.00, 0.00, -0.00, -1.00, 185.8, 665.6)">N</text><text xml:space="preserve" font-family="AvenirNext-DemiBold,Avenir Next" font-weight="bold" font-size="48.0" fill="#3D3B38" transform="matrix(1.00, 0.00, -0.00, -1.00, 227.1, 665.6)"> </text><text xml:space="preserve" font-family="AvenirNext-DemiBold,Avenir Next" font-weight="bold" font-size="48.0" fill="#3D3B38" transform="matrix(1.00, 0.00, -0.00, -1.00, 243.0, 665.6)">D</text><text xml:space="preserve" font-family="AvenirNext-DemiBold,Avenir Next" font-weight="bold" font-size="48.0" fill="#3D3B38" transform="matrix(1.00, 0.00, -0.00, -1.00, 282.3, 665.6)">A</text><text xml:space="preserve" font-family="AvenirNext-DemiBold,Avenir Next" font-weight="bold" font-size="48.0" fill="#3D3B38" transform="matrix(1.00, 0.00, -0.00, -1.00, 317.2, 665.6)">T</text><text xml:space="preserve" font-family="AvenirNext-DemiBold,Avenir Next" font-weight="bold" font-size="48.0" fill="#3D3B38" transform="matrix(1.00, 0.00, -0.00, -1.00, 345.4, 665.6)">A</text><text xml:space="preserve" font-family="AvenirNext-Bold,Avenir Next" font-weight="bold" font-size="48.0" fill="#3D3B38" transform="matrix(1.00, 0.00, -0.00, -1.00, 383.1, 665.6)"> </text><image xlink:href="../../DF5E5B08-6C0A-4543-8564-07EA01AC96AE/assets/F2A0A168162071F8B6EBAF6474A0B761.png" width="313.00" height="41.00" transform="matrix(1.00, 0.00, -0.00, -1.00, 397.0, 701.0)"></image><text xml:space="preserve" font-family="AvenirNext-BoldItalic,Avenir Next" font-style="italic" font-weight="bold" font-size="48.0" fill="#3D3B38" transform="matrix(1.00, 0.00, -0.00, -1.00, 399.0, 665.6)">B</text><text xml:space="preserve" font-family="AvenirNext-BoldItalic,Avenir Next" font-style="italic" font-weight="bold" font-size="48.0" fill="#3D3B38" transform="matrix(1.00, 0.00, -0.00, -1.00, 434.7, 665.6)">O</text><text xml:space="preserve" font-family="AvenirNext-BoldItalic,Avenir Next" font-style="italic" font-weight="bold" font-size="48.0" fill="#3D3B38" transform="matrix(1.00, 0.00, -0.00, -1.00, 478.4, 665.6)">O</text><text xml:space="preserve" font-family="AvenirNext-BoldItalic,Avenir Next" font-style="italic" font-weight="bold" font-size="48.0" fill="#3D3B38" transform="matrix(1.00, 0.00, -0.00, -1.00, 522.1, 665.6)">K</text><text xml:space="preserve" font-family="AvenirNext-BoldItalic,Avenir Next" font-style="italic" font-weight="bold" font-size="48.0" fill="#3D3B38" transform="matrix(1.00, 0.00, -0.00, -1.00, 558.0, 665.6)"> </text><text xml:space="preserve" font-family="AvenirNext-BoldItalic,Avenir Next" font-style="italic" font-weight="bold" font-size="48.0" fill="#3D3B38" transform="matrix(1.00, 0.00, -0.00, -1.00, 573.8, 665.6)">C</text><text xml:space="preserve" font-family="AvenirNext-BoldItalic,Avenir Next" font-style="italic" font-weight="bold" font-size="48.0" fill="#3D3B38" transform="matrix(1.00, 0.00, -0.00, -1.00, 610.5, 665.6)">L</text><text xml:space="preserve" font-family="AvenirNext-BoldItalic,Avenir Next" font-style="italic" font-weight="bold" font-size="48.0" fill="#3D3B38" transform="matrix(1.00, 0.00, -0.00, -1.00, 638.1, 665.6)">U</text><text xml:space="preserve" font-family="AvenirNext-BoldItalic,Avenir Next" font-style="italic" font-weight="bold" font-size="48.0" fill="#3D3B38" transform="matrix(1.00, 0.00, -0.00, -1.00, 677.3, 665.6)">B</text><image xlink:href="../../4578D8F1-1CA0-41E8-9D10-331545025E65/assets/84DF8BE80AB4110A6317C2E9374A1CBD.png" width="169.00" height="37.00" transform="matrix(1.00, 0.00, -0.00, -1.00, 447.0, 591.0)"></image><text xml:space="preserve" font-family="AvenirNext-DemiBoldItalic,Avenir Next" font-style="italic" font-weight="bold" font-size="32.0" fill="#5D514B" transform="matrix(1.00, 0.00, -0.00, -1.00, 450.2, 566.0)">p</text><text xml:space="preserve" font-family="AvenirNext-DemiBoldItalic,Avenir Next" font-style="italic" font-weight="bold" font-size="32.0" fill="#5D514B" transform="matrix(1.00, 0.00, -0.00, -1.00, 470.5, 566.0)">u</text><text xml:space="preserve" font-family="AvenirNext-DemiBoldItalic,Avenir Next" font-style="italic" font-weight="bold" font-size="32.0" fill="#5D514B" transform="matrix(1.00, 0.00, -0.00, -1.00, 489.2, 566.0)">b</text><text xml:space="preserve" font-family="AvenirNext-DemiBoldItalic,Avenir Next" font-style="italic" font-weight="bold" font-size="32.0" fill="#5D514B" transform="matrix(1.00, 0.00, -0.00, -1.00, 509.6, 566.0)">l</text><text xml:space="preserve" font-family="AvenirNext-DemiBoldItalic,Avenir Next" font-style="italic" font-weight="bold" font-size="32.0" fill="#5D514B" transform="matrix(1.00, 0.00, -0.00, -1.00, 518.2, 566.0)">i</text><text xml:space="preserve" font-family="AvenirNext-DemiBoldItalic,Avenir Next" font-style="italic" font-weight="bold" font-size="32.0" fill="#5D514B" transform="matrix(1.00, 0.00, -0.00, -1.00, 526.7, 566.0)">c</text><text xml:space="preserve" font-family="AvenirNext-DemiBoldItalic,Avenir Next" font-style="italic" font-weight="bold" font-size="32.0" fill="#5D514B" transform="matrix(1.00, 0.00, -0.00, -1.00, 542.5, 566.0)"> </text><text xml:space="preserve" font-family="AvenirNext-DemiBoldItalic,Avenir Next" font-style="italic" font-weight="bold" font-size="32.0" fill="#5D514B" transform="matrix(1.00, 0.00, -0.00, -1.00, 550.5, 566.0)">d</text><text xml:space="preserve" font-family="AvenirNext-DemiBoldItalic,Avenir Next" font-style="italic" font-weight="bold" font-size="32.0" fill="#5D514B" transform="matrix(1.00, 0.00, -0.00, -1.00, 570.7, 566.0)">a</text><text xml:space="preserve" font-family="AvenirNext-DemiBoldItalic,Avenir Next" font-style="italic" font-weight="bold" font-size="32.0" fill="#5D514B" transform="matrix(1.00, 0.00, -0.00, -1.00, 587.7, 566.0)">t</text><text xml:space="preserve" font-family="AvenirNext-DemiBoldItalic,Avenir Next" font-style="italic" font-weight="bold" font-size="32.0" fill="#5D514B" transform="matrix(1.00, 0.00, -0.00, -1.00, 598.6, 566.0)">a</text><image xlink:href="../../4578D8F1-1CA0-41E8-9D10-331545025E65/assets/76BC9ADA563814766D0AC053A8AE1BC8.png" width="293.00" height="30.00" transform="matrix(1.00, 0.00, -0.00, -1.00, 386.0, 495.0)"></image><text xml:space="preserve" font-family="AvenirNext-DemiBoldItalic,Avenir Next" font-style="italic" font-weight="bold" font-size="32.0" fill="#5D514B" transform="matrix(1.00, 0.00, -0.00, -1.00, 387.4, 469.8)">c</text><text xml:space="preserve" font-family="AvenirNext-DemiBoldItalic,Avenir Next" font-style="italic" font-weight="bold" font-size="32.0" fill="#5D514B" transform="matrix(1.00, 0.00, -0.00, -1.00, 403.1, 469.8)">r</text><text xml:space="preserve" font-family="AvenirNext-DemiBoldItalic,Avenir Next" font-style="italic" font-weight="bold" font-size="32.0" fill="#5D514B" transform="matrix(1.00, 0.00, -0.00, -1.00, 413.6, 469.8)">o</text><text xml:space="preserve" font-family="AvenirNext-DemiBoldItalic,Avenir Next" font-style="italic" font-weight="bold" font-size="32.0" fill="#5D514B" transform="matrix(1.00, 0.00, -0.00, -1.00, 432.9, 469.8)">w</text><text xml:space="preserve" font-family="AvenirNext-DemiBoldItalic,Avenir Next" font-style="italic" font-weight="bold" font-size="32.0" fill="#5D514B" transform="matrix(1.00, 0.00, -0.00, -1.00, 458.0, 469.8)">d</text><text xml:space="preserve" font-family="AvenirNext-DemiBoldItalic,Avenir Next" font-style="italic" font-weight="bold" font-size="32.0" fill="#5D514B" transform="matrix(1.00, 0.00, -0.00, -1.00, 478.3, 469.8)">-</text><text xml:space="preserve" font-family="AvenirNext-DemiBoldItalic,Avenir Next" font-style="italic" font-weight="bold" font-size="32.0" fill="#5D514B" transform="matrix(1.00, 0.00, -0.00, -1.00, 488.5, 469.8)">s</text><text xml:space="preserve" font-family="AvenirNext-DemiBoldItalic,Avenir Next" font-style="italic" font-weight="bold" font-size="32.0" fill="#5D514B" transform="matrix(1.00, 0.00, -0.00, -1.00, 502.7, 469.8)">o</text><text xml:space="preserve" font-family="AvenirNext-DemiBoldItalic,Avenir Next" font-style="italic" font-weight="bold" font-size="32.0" fill="#5D514B" transform="matrix(1.00, 0.00, -0.00, -1.00, 522.1, 469.8)">u</text><text xml:space="preserve" font-family="AvenirNext-DemiBoldItalic,Avenir Next" font-style="italic" font-weight="bold" font-size="32.0" fill="#5D514B" transform="matrix(1.00, 0.00, -0.00, -1.00, 540.8, 469.8)">r</text><text xml:space="preserve" font-family="AvenirNext-DemiBoldItalic,Avenir Next" font-style="italic" font-weight="bold" font-size="32.0" fill="#5D514B" transform="matrix(1.00, 0.00, -0.00, -1.00, 551.2, 469.8)">c</text><text xml:space="preserve" font-family="AvenirNext-DemiBoldItalic,Avenir Next" font-style="italic" font-weight="bold" font-size="32.0" fill="#5D514B" transform="matrix(1.00, 0.00, -0.00, -1.00, 567.0, 469.8)">e</text><text xml:space="preserve" font-family="AvenirNext-DemiBoldItalic,Avenir Next" font-style="italic" font-weight="bold" font-size="32.0" fill="#5D514B" transform="matrix(1.00, 0.00, -0.00, -1.00, 585.0, 469.8)">d</text><text xml:space="preserve" font-family="AvenirNext-DemiBoldItalic,Avenir Next" font-style="italic" font-weight="bold" font-size="32.0" fill="#5D514B" transform="matrix(1.00, 0.00, -0.00, -1.00, 605.3, 469.8)"> </text><text xml:space="preserve" font-family="AvenirNext-DemiBoldItalic,Avenir Next" font-style="italic" font-weight="bold" font-size="32.0" fill="#5D514B" transform="matrix(1.00, 0.00, -0.00, -1.00, 613.3, 469.8)">d</text><text xml:space="preserve" font-family="AvenirNext-DemiBoldItalic,Avenir Next" font-style="italic" font-weight="bold" font-size="32.0" fill="#5D514B" transform="matrix(1.00, 0.00, -0.00, -1.00, 633.6, 469.8)">a</text><text xml:space="preserve" font-family="AvenirNext-DemiBoldItalic,Avenir Next" font-style="italic" font-weight="bold" font-size="32.0" fill="#5D514B" transform="matrix(1.00, 0.00, -0.00, -1.00, 650.5, 469.8)">t</text><text xml:space="preserve" font-family="AvenirNext-DemiBoldItalic,Avenir Next" font-style="italic" font-weight="bold" font-size="32.0" fill="#5D514B" transform="matrix(1.00, 0.00, -0.00, -1.00, 661.4, 469.8)">a</text><image xlink:href="../../4578D8F1-1CA0-41E8-9D10-331545025E65/assets/C1C8DA99DDE64AD63934D74C14869E12.png" width="184.00" height="36.00" transform="matrix(1.00, 0.00, -0.00, -1.00, 442.0, 398.0)"></image><text xml:space="preserve" font-family="AvenirNext-DemiBoldItalic,Avenir Next" font-style="italic" font-weight="bold" font-size="32.0" fill="#5D514B" transform="matrix(1.00, 0.00, -0.00, -1.00, 443.5, 373.7)">d</text><text xml:space="preserve" font-family="AvenirNext-DemiBoldItalic,Avenir Next" font-style="italic" font-weight="bold" font-size="32.0" fill="#5D514B" transform="matrix(1.00, 0.00, -0.00, -1.00, 463.8, 373.7)">a</text><text xml:space="preserve" font-family="AvenirNext-DemiBoldItalic,Avenir Next" font-style="italic" font-weight="bold" font-size="32.0" fill="#5D514B" transform="matrix(1.00, 0.00, -0.00, -1.00, 480.7, 373.7)">t</text><text xml:space="preserve" font-family="AvenirNext-DemiBoldItalic,Avenir Next" font-style="italic" font-weight="bold" font-size="32.0" fill="#5D514B" transform="matrix(1.00, 0.00, -0.00, -1.00, 491.6, 373.7)">a</text><text xml:space="preserve" font-family="AvenirNext-DemiBoldItalic,Avenir Next" font-style="italic" font-weight="bold" font-size="32.0" fill="#5D514B" transform="matrix(1.00, 0.00, -0.00, -1.00, 508.8, 373.7)"> </text><text xml:space="preserve" font-family="AvenirNext-DemiBoldItalic,Avenir Next" font-style="italic" font-weight="bold" font-size="32.0" fill="#5D514B" transform="matrix(1.00, 0.00, -0.00, -1.00, 516.8, 373.7)">l</text><text xml:space="preserve" font-family="AvenirNext-DemiBoldItalic,Avenir Next" font-style="italic" font-weight="bold" font-size="32.0" fill="#5D514B" transform="matrix(1.00, 0.00, -0.00, -1.00, 525.4, 373.7)">i</text><text xml:space="preserve" font-family="AvenirNext-DemiBoldItalic,Avenir Next" font-style="italic" font-weight="bold" font-size="32.0" fill="#5D514B" transform="matrix(1.00, 0.00, -0.00, -1.00, 533.9, 373.7)">t</text><text xml:space="preserve" font-family="AvenirNext-DemiBoldItalic,Avenir Next" font-style="italic" font-weight="bold" font-size="32.0" fill="#5D514B" transform="matrix(1.00, 0.00, -0.00, -1.00, 544.8, 373.7)">e</text><text xml:space="preserve" font-family="AvenirNext-DemiBoldItalic,Avenir Next" font-style="italic" font-weight="bold" font-size="32.0" fill="#5D514B" transform="matrix(1.00, 0.00, -0.00, -1.00, 562.9, 373.7)">r</text><text xml:space="preserve" font-family="AvenirNext-DemiBoldItalic,Avenir Next" font-style="italic" font-weight="bold" font-size="32.0" fill="#5D514B" transform="matrix(1.00, 0.00, -0.00, -1.00, 573.3, 373.7)">a</text><text xml:space="preserve" font-family="AvenirNext-DemiBoldItalic,Avenir Next" font-style="italic" font-weight="bold" font-size="32.0" fill="#5D514B" transform="matrix(1.00, 0.00, -0.00, -1.00, 590.6, 373.7)">c</text><text xml:space="preserve" font-family="AvenirNext-DemiBoldItalic,Avenir Next" font-style="italic" font-weight="bold" font-size="32.0" fill="#5D514B" transform="matrix(1.00, 0.00, -0.00, -1.00, 606.3, 373.7)">y</text><image xlink:href="F95B7A5AC74BF03E5DCF242C27F6C8FA.png" width="158.00" height="37.00" transform="matrix(1.00, 0.00, -0.00, -1.00, 630.0, 182.0)"></image><text xml:space="preserve" font-family="AvenirNext-DemiBoldItalic,Avenir Next" font-style="italic" font-weight="bold" font-size="32.0" fill="#5D514B" transform="matrix(1.00, 0.00, -0.00, -1.00, 632.3, 157.2)">h</text><text xml:space="preserve" font-family="AvenirNext-DemiBoldItalic,Avenir Next" font-style="italic" font-weight="bold" font-size="32.0" fill="#5D514B" transform="matrix(1.00, 0.00, -0.00, -1.00, 651.0, 157.2)">a</text><text xml:space="preserve" font-family="AvenirNext-DemiBoldItalic,Avenir Next" font-style="italic" font-weight="bold" font-size="32.0" fill="#5D514B" transform="matrix(1.00, 0.00, -0.00, -1.00, 668.2, 157.2)">c</text><text xml:space="preserve" font-family="AvenirNext-DemiBoldItalic,Avenir Next" font-style="italic" font-weight="bold" font-size="32.0" fill="#5D514B" transform="matrix(1.00, 0.00, -0.00, -1.00, 684.0, 157.2)">k</text><text xml:space="preserve" font-family="AvenirNext-DemiBoldItalic,Avenir Next" font-style="italic" font-weight="bold" font-size="32.0" fill="#5D514B" transform="matrix(1.00, 0.00, -0.00, -1.00, 700.7, 157.2)"> </text><text xml:space="preserve" font-family="AvenirNext-DemiBoldItalic,Avenir Next" font-style="italic" font-weight="bold" font-size="32.0" fill="#5D514B" transform="matrix(1.00, 0.00, -0.00, -1.00, 708.7, 157.2)">n</text><text xml:space="preserve" font-family="AvenirNext-DemiBoldItalic,Avenir Next" font-style="italic" font-weight="bold" font-size="32.0" fill="#5D514B" transform="matrix(1.00, 0.00, -0.00, -1.00, 727.4, 157.2)">i</text><text xml:space="preserve" font-family="AvenirNext-DemiBoldItalic,Avenir Next" font-style="italic" font-weight="bold" font-size="32.0" fill="#5D514B" transform="matrix(1.00, 0.00, -0.00, -1.00, 735.9, 157.2)">g</text><text xml:space="preserve" font-family="AvenirNext-DemiBoldItalic,Avenir Next" font-style="italic" font-weight="bold" font-size="32.0" fill="#5D514B" transform="matrix(1.00, 0.00, -0.00, -1.00, 756.1, 157.2)">h</text><text xml:space="preserve" font-family="AvenirNext-DemiBoldItalic,Avenir Next" font-style="italic" font-weight="bold" font-size="32.0" fill="#5D514B" transform="matrix(1.00, 0.00, -0.00, -1.00, 774.8, 157.2)">t</text><image xlink:href="FD1DC8104A4AC7E87B852D3EBACC1CB3.png" width="105.00" height="35.00" transform="matrix(1.00, 0.00, -0.00, -1.00, 146.0, 360.0)"></image><text xml:space="preserve" font-family="AvenirNext-DemiBoldItalic,Avenir Next" font-style="italic" font-weight="bold" font-size="32.0" fill="#5D514B" transform="matrix(1.00, 0.00, -0.00, -1.00, 146.7, 336.7)">“</text><text xml:space="preserve" font-family="AvenirNext-DemiBoldItalic,Avenir Next" font-style="italic" font-weight="bold" font-size="32.0" fill="#5D514B" transform="matrix(1.00, 0.00, -0.00, -1.00, 160.5, 336.7)">a</text><text xml:space="preserve" font-family="AvenirNext-DemiBoldItalic,Avenir Next" font-style="italic" font-weight="bold" font-size="32.0" fill="#5D514B" transform="matrix(1.00, 0.00, -0.00, -1.00, 177.7, 336.7)">p</text><text xml:space="preserve" font-family="AvenirNext-DemiBoldItalic,Avenir Next" font-style="italic" font-weight="bold" font-size="32.0" fill="#5D514B" transform="matrix(1.00, 0.00, -0.00, -1.00, 198.0, 336.7)">p</text><text xml:space="preserve" font-family="AvenirNext-DemiBoldItalic,Avenir Next" font-style="italic" font-weight="bold" font-size="32.0" fill="#5D514B" transform="matrix(1.00, 0.00, -0.00, -1.00, 218.4, 336.7)">s</text><text xml:space="preserve" font-family="AvenirNext-DemiBoldItalic,Avenir Next" font-style="italic" font-weight="bold" font-size="32.0" fill="#5D514B" transform="matrix(1.00, 0.00, -0.00, -1.00, 232.6, 336.7)">”</text><image xlink:href="B807F94D147FB0C79606102D97DFD9DC.png" width="208.00" height="28.00" transform="matrix(1.00, 0.00, -0.00, -1.00, 706.0, 301.0)"></image><text xml:space="preserve" font-family="AvenirNext-DemiBoldItalic,Avenir Next" font-style="italic" font-weight="bold" font-size="32.0" fill="#5D514B" transform="matrix(1.00, 0.00, -0.00, -1.00, 709.6, 277.6)">s</text><text xml:space="preserve" font-family="AvenirNext-DemiBoldItalic,Avenir Next" font-style="italic" font-weight="bold" font-size="32.0" fill="#5D514B" transform="matrix(1.00, 0.00, -0.00, -1.00, 723.8, 277.6)">t</text><text xml:space="preserve" font-family="AvenirNext-DemiBoldItalic,Avenir Next" font-style="italic" font-weight="bold" font-size="32.0" fill="#5D514B" transform="matrix(1.00, 0.00, -0.00, -1.00, 734.7, 277.6)">a</text><text xml:space="preserve" font-family="AvenirNext-DemiBoldItalic,Avenir Next" font-style="italic" font-weight="bold" font-size="32.0" fill="#5D514B" transform="matrix(1.00, 0.00, -0.00, -1.00, 751.6, 277.6)">t</text><text xml:space="preserve" font-family="AvenirNext-DemiBoldItalic,Avenir Next" font-style="italic" font-weight="bold" font-size="32.0" fill="#5D514B" transform="matrix(1.00, 0.00, -0.00, -1.00, 762.5, 277.6)"> </text><text xml:space="preserve" font-family="AvenirNext-DemiBoldItalic,Avenir Next" font-style="italic" font-weight="bold" font-size="32.0" fill="#5D514B" transform="matrix(1.00, 0.00, -0.00, -1.00, 770.5, 277.6)">n</text><text xml:space="preserve" font-family="AvenirNext-DemiBoldItalic,Avenir Next" font-style="italic" font-weight="bold" font-size="32.0" fill="#5D514B" transform="matrix(1.00, 0.00, -0.00, -1.00, 789.2, 277.6)">a</text><text xml:space="preserve" font-family="AvenirNext-DemiBoldItalic,Avenir Next" font-style="italic" font-weight="bold" font-size="32.0" fill="#5D514B" transform="matrix(1.00, 0.00, -0.00, -1.00, 806.4, 277.6)">r</text><text xml:space="preserve" font-family="AvenirNext-DemiBoldItalic,Avenir Next" font-style="italic" font-weight="bold" font-size="32.0" fill="#5D514B" transform="matrix(1.00, 0.00, -0.00, -1.00, 817.3, 277.6)">r</text><text xml:space="preserve" font-family="AvenirNext-DemiBoldItalic,Avenir Next" font-style="italic" font-weight="bold" font-size="32.0" fill="#5D514B" transform="matrix(1.00, 0.00, -0.00, -1.00, 827.7, 277.6)">a</text><text xml:space="preserve" font-family="AvenirNext-DemiBoldItalic,Avenir Next" font-style="italic" font-weight="bold" font-size="32.0" fill="#5D514B" transform="matrix(1.00, 0.00, -0.00, -1.00, 844.7, 277.6)">t</text><text xml:space="preserve" font-family="AvenirNext-DemiBoldItalic,Avenir Next" font-style="italic" font-weight="bold" font-size="32.0" fill="#5D514B" transform="matrix(1.00, 0.00, -0.00, -1.00, 855.5, 277.6)">i</text><text xml:space="preserve" font-family="AvenirNext-DemiBoldItalic,Avenir Next" font-style="italic" font-weight="bold" font-size="32.0" fill="#5D514B" transform="matrix(1.00, 0.00, -0.00, -1.00, 864.1, 277.6)">v</text><text xml:space="preserve" font-family="AvenirNext-DemiBoldItalic,Avenir Next" font-style="italic" font-weight="bold" font-size="32.0" fill="#5D514B" transform="matrix(1.00, 0.00, -0.00, -1.00, 880.2, 277.6)">e</text><text xml:space="preserve" font-family="AvenirNext-DemiBoldItalic,Avenir Next" font-style="italic" font-weight="bold" font-size="32.0" fill="#5D514B" transform="matrix(1.00, 0.00, -0.00, -1.00, 898.2, 277.6)">s</text><image xlink:href="60CDB262B2CA58E1B15AD1455F85F75A.png" width="295.00" height="37.00" transform="matrix(1.00, 0.00, -0.00, -1.00, 248.0, 244.0)"></image><text xml:space="preserve" font-family="AvenirNext-DemiBoldItalic,Avenir Next" font-style="italic" font-weight="bold" font-size="32.0" fill="#5D514B" transform="matrix(1.00, 0.00, -0.00, -1.00, 250.0, 219.2)">v</text><text xml:space="preserve" font-family="AvenirNext-DemiBoldItalic,Avenir Next" font-style="italic" font-weight="bold" font-size="32.0" fill="#5D514B" transform="matrix(1.00, 0.00, -0.00, -1.00, 266.0, 219.2)">i</text><text xml:space="preserve" font-family="AvenirNext-DemiBoldItalic,Avenir Next" font-style="italic" font-weight="bold" font-size="32.0" fill="#5D514B" transform="matrix(1.00, 0.00, -0.00, -1.00, 274.6, 219.2)">s</text><text xml:space="preserve" font-family="AvenirNext-DemiBoldItalic,Avenir Next" font-style="italic" font-weight="bold" font-size="32.0" fill="#5D514B" transform="matrix(1.00, 0.00, -0.00, -1.00, 288.8, 219.2)">u</text><text xml:space="preserve" font-family="AvenirNext-DemiBoldItalic,Avenir Next" font-style="italic" font-weight="bold" font-size="32.0" fill="#5D514B" transform="matrix(1.00, 0.00, -0.00, -1.00, 307.5, 219.2)">a</text><text xml:space="preserve" font-family="AvenirNext-DemiBoldItalic,Avenir Next" font-style="italic" font-weight="bold" font-size="32.0" fill="#5D514B" transform="matrix(1.00, 0.00, -0.00, -1.00, 324.7, 219.2)">l</text><text xml:space="preserve" font-family="AvenirNext-DemiBoldItalic,Avenir Next" font-style="italic" font-weight="bold" font-size="32.0" fill="#5D514B" transform="matrix(1.00, 0.00, -0.00, -1.00, 333.3, 219.2)"> </text><text xml:space="preserve" font-family="AvenirNext-DemiBoldItalic,Avenir Next" font-style="italic" font-weight="bold" font-size="32.0" fill="#5D514B" transform="matrix(1.00, 0.00, -0.00, -1.00, 341.3, 219.2)">/</text><text xml:space="preserve" font-family="AvenirNext-DemiBoldItalic,Avenir Next" font-style="italic" font-weight="bold" font-size="32.0" fill="#5D514B" transform="matrix(1.00, 0.00, -0.00, -1.00, 353.7, 219.2)"> </text><text xml:space="preserve" font-family="AvenirNext-DemiBoldItalic,Avenir Next" font-style="italic" font-weight="bold" font-size="32.0" fill="#5D514B" transform="matrix(1.00, 0.00, -0.00, -1.00, 361.7, 219.2)">i</text><text xml:space="preserve" font-family="AvenirNext-DemiBoldItalic,Avenir Next" font-style="italic" font-weight="bold" font-size="32.0" fill="#5D514B" transform="matrix(1.00, 0.00, -0.00, -1.00, 370.2, 219.2)">n</text><text xml:space="preserve" font-family="AvenirNext-DemiBoldItalic,Avenir Next" font-style="italic" font-weight="bold" font-size="32.0" fill="#5D514B" transform="matrix(1.00, 0.00, -0.00, -1.00, 388.9, 219.2)">f</text><text xml:space="preserve" font-family="AvenirNext-DemiBoldItalic,Avenir Next" font-style="italic" font-weight="bold" font-size="32.0" fill="#5D514B" transform="matrix(1.00, 0.00, -0.00, -1.00, 399.2, 219.2)">o</text><text xml:space="preserve" font-family="AvenirNext-DemiBoldItalic,Avenir Next" font-style="italic" font-weight="bold" font-size="32.0" fill="#5D514B" transform="matrix(1.00, 0.00, -0.00, -1.00, 418.6, 219.2)">-</text><text xml:space="preserve" font-family="AvenirNext-DemiBoldItalic,Avenir Next" font-style="italic" font-weight="bold" font-size="32.0" fill="#5D514B" transform="matrix(1.00, 0.00, -0.00, -1.00, 428.8, 219.2)">g</text><text xml:space="preserve" font-family="AvenirNext-DemiBoldItalic,Avenir Next" font-style="italic" font-weight="bold" font-size="32.0" fill="#5D514B" transform="matrix(1.00, 0.00, -0.00, -1.00, 449.0, 219.2)">r</text><text xml:space="preserve" font-family="AvenirNext-DemiBoldItalic,Avenir Next" font-style="italic" font-weight="bold" font-size="32.0" fill="#5D514B" transform="matrix(1.00, 0.00, -0.00, -1.00, 459.5, 219.2)">a</text><text xml:space="preserve" font-family="AvenirNext-DemiBoldItalic,Avenir Next" font-style="italic" font-weight="bold" font-size="32.0" fill="#5D514B" transform="matrix(1.00, 0.00, -0.00, -1.00, 476.7, 219.2)">p</text><text xml:space="preserve" font-family="AvenirNext-DemiBoldItalic,Avenir Next" font-style="italic" font-weight="bold" font-size="32.0" fill="#5D514B" transform="matrix(1.00, 0.00, -0.00, -1.00, 497.1, 219.2)">h</text><text xml:space="preserve" font-family="AvenirNext-DemiBoldItalic,Avenir Next" font-style="italic" font-weight="bold" font-size="32.0" fill="#5D514B" transform="matrix(1.00, 0.00, -0.00, -1.00, 515.8, 219.2)">i</text><text xml:space="preserve" font-family="AvenirNext-DemiBoldItalic,Avenir Next" font-style="italic" font-weight="bold" font-size="32.0" fill="#5D514B" transform="matrix(1.00, 0.00, -0.00, -1.00, 524.3, 219.2)">c</text></g></svg>